<mxfile host="app.diagrams.net" agent="Mozilla/5.0 (Windows NT 10.0; Win64; x64) AppleWebKit/537.36 (KHTML, like Gecko) Chrome/133.0.0.0 Safari/537.36" version="26.0.16">
  <diagram name="Página-1" id="3cEowCFVHvOc9PCuCaK-">
    <mxGraphModel dx="4412" dy="1865" grid="1" gridSize="10" guides="1" tooltips="1" connect="1" arrows="1" fold="1" page="1" pageScale="1" pageWidth="827" pageHeight="1169" math="0" shadow="0">
      <root>
        <mxCell id="0" />
        <mxCell id="1" parent="0" />
        <mxCell id="3AB0t5_sJRTs1TqdBcbe-1" value="Usuário" style="swimlane;fontStyle=2;align=center;verticalAlign=top;childLayout=stackLayout;horizontal=1;startSize=26;horizontalStack=0;resizeParent=1;resizeLast=0;collapsible=1;marginBottom=0;rounded=0;shadow=0;strokeWidth=1;" parent="1" vertex="1">
          <mxGeometry x="2050" y="70" width="320" height="522" as="geometry">
            <mxRectangle x="230" y="140" width="160" height="26" as="alternateBounds" />
          </mxGeometry>
        </mxCell>
        <mxCell id="3AB0t5_sJRTs1TqdBcbe-2" value="- id: int" style="text;align=left;verticalAlign=top;spacingLeft=4;spacingRight=4;overflow=hidden;rotatable=0;points=[[0,0.5],[1,0.5]];portConstraint=eastwest;" parent="3AB0t5_sJRTs1TqdBcbe-1" vertex="1">
          <mxGeometry y="26" width="320" height="26" as="geometry" />
        </mxCell>
        <mxCell id="3AB0t5_sJRTs1TqdBcbe-3" value="- nome: str" style="text;align=left;verticalAlign=top;spacingLeft=4;spacingRight=4;overflow=hidden;rotatable=0;points=[[0,0.5],[1,0.5]];portConstraint=eastwest;rounded=0;shadow=0;html=0;" parent="3AB0t5_sJRTs1TqdBcbe-1" vertex="1">
          <mxGeometry y="52" width="320" height="26" as="geometry" />
        </mxCell>
        <mxCell id="3AB0t5_sJRTs1TqdBcbe-4" value="- email: str" style="text;align=left;verticalAlign=top;spacingLeft=4;spacingRight=4;overflow=hidden;rotatable=0;points=[[0,0.5],[1,0.5]];portConstraint=eastwest;rounded=0;shadow=0;html=0;" parent="3AB0t5_sJRTs1TqdBcbe-1" vertex="1">
          <mxGeometry y="78" width="320" height="24" as="geometry" />
        </mxCell>
        <mxCell id="3AB0t5_sJRTs1TqdBcbe-5" value="- fone: str" style="text;align=left;verticalAlign=top;spacingLeft=4;spacingRight=4;overflow=hidden;rotatable=0;points=[[0,0.5],[1,0.5]];portConstraint=eastwest;rounded=0;shadow=0;html=0;" parent="3AB0t5_sJRTs1TqdBcbe-1" vertex="1">
          <mxGeometry y="102" width="320" height="24" as="geometry" />
        </mxCell>
        <mxCell id="3AB0t5_sJRTs1TqdBcbe-6" value="- senha: str" style="text;align=left;verticalAlign=top;spacingLeft=4;spacingRight=4;overflow=hidden;rotatable=0;points=[[0,0.5],[1,0.5]];portConstraint=eastwest;rounded=0;shadow=0;html=0;" parent="3AB0t5_sJRTs1TqdBcbe-1" vertex="1">
          <mxGeometry y="126" width="320" height="24" as="geometry" />
        </mxCell>
        <mxCell id="RDJu3QqzxpKSYIwAovrP-16" value="- tipo_usuário: enumUsuarios" style="text;align=left;verticalAlign=top;spacingLeft=4;spacingRight=4;overflow=hidden;rotatable=0;points=[[0,0.5],[1,0.5]];portConstraint=eastwest;rounded=0;shadow=0;html=0;" parent="3AB0t5_sJRTs1TqdBcbe-1" vertex="1">
          <mxGeometry y="150" width="320" height="24" as="geometry" />
        </mxCell>
        <mxCell id="3AB0t5_sJRTs1TqdBcbe-7" value="" style="line;html=1;strokeWidth=1;align=left;verticalAlign=middle;spacingTop=-1;spacingLeft=3;spacingRight=3;rotatable=0;labelPosition=right;points=[];portConstraint=eastwest;" parent="3AB0t5_sJRTs1TqdBcbe-1" vertex="1">
          <mxGeometry y="174" width="320" height="10" as="geometry" />
        </mxCell>
        <mxCell id="3AB0t5_sJRTs1TqdBcbe-8" value="+ Usuário (id: int, nome: str, email: str, fone: str, senha: str)" style="text;align=left;verticalAlign=top;spacingLeft=4;spacingRight=4;overflow=hidden;rotatable=0;points=[[0,0.5],[1,0.5]];portConstraint=eastwest;" parent="3AB0t5_sJRTs1TqdBcbe-1" vertex="1">
          <mxGeometry y="184" width="320" height="26" as="geometry" />
        </mxCell>
        <mxCell id="3AB0t5_sJRTs1TqdBcbe-9" value="+ Set_Id(id: int): void" style="text;align=left;verticalAlign=top;spacingLeft=4;spacingRight=4;overflow=hidden;rotatable=0;points=[[0,0.5],[1,0.5]];portConstraint=eastwest;" parent="3AB0t5_sJRTs1TqdBcbe-1" vertex="1">
          <mxGeometry y="210" width="320" height="26" as="geometry" />
        </mxCell>
        <mxCell id="3AB0t5_sJRTs1TqdBcbe-10" value="+ Set_Nome(nome: str): void" style="text;align=left;verticalAlign=top;spacingLeft=4;spacingRight=4;overflow=hidden;rotatable=0;points=[[0,0.5],[1,0.5]];portConstraint=eastwest;" parent="3AB0t5_sJRTs1TqdBcbe-1" vertex="1">
          <mxGeometry y="236" width="320" height="26" as="geometry" />
        </mxCell>
        <mxCell id="3AB0t5_sJRTs1TqdBcbe-11" value="+ Set_Email(email: str): void" style="text;align=left;verticalAlign=top;spacingLeft=4;spacingRight=4;overflow=hidden;rotatable=0;points=[[0,0.5],[1,0.5]];portConstraint=eastwest;" parent="3AB0t5_sJRTs1TqdBcbe-1" vertex="1">
          <mxGeometry y="262" width="320" height="26" as="geometry" />
        </mxCell>
        <mxCell id="3AB0t5_sJRTs1TqdBcbe-12" value="+ Set_Fone(fone: str): void" style="text;align=left;verticalAlign=top;spacingLeft=4;spacingRight=4;overflow=hidden;rotatable=0;points=[[0,0.5],[1,0.5]];portConstraint=eastwest;" parent="3AB0t5_sJRTs1TqdBcbe-1" vertex="1">
          <mxGeometry y="288" width="320" height="26" as="geometry" />
        </mxCell>
        <mxCell id="3AB0t5_sJRTs1TqdBcbe-13" value="+ Set_Senha(senha: str): void" style="text;align=left;verticalAlign=top;spacingLeft=4;spacingRight=4;overflow=hidden;rotatable=0;points=[[0,0.5],[1,0.5]];portConstraint=eastwest;" parent="3AB0t5_sJRTs1TqdBcbe-1" vertex="1">
          <mxGeometry y="314" width="320" height="26" as="geometry" />
        </mxCell>
        <mxCell id="3AB0t5_sJRTs1TqdBcbe-14" value="+ Get_Id(): int" style="text;align=left;verticalAlign=top;spacingLeft=4;spacingRight=4;overflow=hidden;rotatable=0;points=[[0,0.5],[1,0.5]];portConstraint=eastwest;" parent="3AB0t5_sJRTs1TqdBcbe-1" vertex="1">
          <mxGeometry y="340" width="320" height="26" as="geometry" />
        </mxCell>
        <mxCell id="3AB0t5_sJRTs1TqdBcbe-15" value="+ Get_Nome(): str" style="text;align=left;verticalAlign=top;spacingLeft=4;spacingRight=4;overflow=hidden;rotatable=0;points=[[0,0.5],[1,0.5]];portConstraint=eastwest;" parent="3AB0t5_sJRTs1TqdBcbe-1" vertex="1">
          <mxGeometry y="366" width="320" height="26" as="geometry" />
        </mxCell>
        <mxCell id="3AB0t5_sJRTs1TqdBcbe-16" value="+ Get_Email(): str" style="text;align=left;verticalAlign=top;spacingLeft=4;spacingRight=4;overflow=hidden;rotatable=0;points=[[0,0.5],[1,0.5]];portConstraint=eastwest;" parent="3AB0t5_sJRTs1TqdBcbe-1" vertex="1">
          <mxGeometry y="392" width="320" height="26" as="geometry" />
        </mxCell>
        <mxCell id="3AB0t5_sJRTs1TqdBcbe-17" value="+ Get_Fone(): str" style="text;align=left;verticalAlign=top;spacingLeft=4;spacingRight=4;overflow=hidden;rotatable=0;points=[[0,0.5],[1,0.5]];portConstraint=eastwest;" parent="3AB0t5_sJRTs1TqdBcbe-1" vertex="1">
          <mxGeometry y="418" width="320" height="26" as="geometry" />
        </mxCell>
        <mxCell id="3AB0t5_sJRTs1TqdBcbe-18" value="+ Get_Senha(): str" style="text;align=left;verticalAlign=top;spacingLeft=4;spacingRight=4;overflow=hidden;rotatable=0;points=[[0,0.5],[1,0.5]];portConstraint=eastwest;" parent="3AB0t5_sJRTs1TqdBcbe-1" vertex="1">
          <mxGeometry y="444" width="320" height="26" as="geometry" />
        </mxCell>
        <mxCell id="3AB0t5_sJRTs1TqdBcbe-19" value="+ ToString(): str" style="text;align=left;verticalAlign=top;spacingLeft=4;spacingRight=4;overflow=hidden;rotatable=0;points=[[0,0.5],[1,0.5]];portConstraint=eastwest;" parent="3AB0t5_sJRTs1TqdBcbe-1" vertex="1">
          <mxGeometry y="470" width="320" height="26" as="geometry" />
        </mxCell>
        <mxCell id="3AB0t5_sJRTs1TqdBcbe-20" value="+ To_Dict(): dict" style="text;align=left;verticalAlign=top;spacingLeft=4;spacingRight=4;overflow=hidden;rotatable=0;points=[[0,0.5],[1,0.5]];portConstraint=eastwest;" parent="3AB0t5_sJRTs1TqdBcbe-1" vertex="1">
          <mxGeometry y="496" width="320" height="26" as="geometry" />
        </mxCell>
        <mxCell id="3AB0t5_sJRTs1TqdBcbe-21" value="&lt;&lt;static&gt;&gt;&#xa;Usuários" style="swimlane;fontStyle=2;align=center;verticalAlign=top;childLayout=stackLayout;horizontal=1;startSize=42;horizontalStack=0;resizeParent=1;resizeLast=0;collapsible=1;marginBottom=0;rounded=0;shadow=0;strokeWidth=1;" parent="1" vertex="1">
          <mxGeometry x="933" y="800" width="120" height="110" as="geometry">
            <mxRectangle x="230" y="140" width="160" height="26" as="alternateBounds" />
          </mxGeometry>
        </mxCell>
        <mxCell id="3AB0t5_sJRTs1TqdBcbe-23" value="" style="line;html=1;strokeWidth=1;align=left;verticalAlign=middle;spacingTop=-1;spacingLeft=3;spacingRight=3;rotatable=0;labelPosition=right;points=[];portConstraint=eastwest;" parent="3AB0t5_sJRTs1TqdBcbe-21" vertex="1">
          <mxGeometry y="42" width="120" height="10" as="geometry" />
        </mxCell>
        <mxCell id="3AB0t5_sJRTs1TqdBcbe-29" value="+ Salvar(): void" style="text;align=left;verticalAlign=top;spacingLeft=4;spacingRight=4;overflow=hidden;rotatable=0;points=[[0,0.5],[1,0.5]];portConstraint=eastwest;" parent="3AB0t5_sJRTs1TqdBcbe-21" vertex="1">
          <mxGeometry y="52" width="120" height="26" as="geometry" />
        </mxCell>
        <mxCell id="3AB0t5_sJRTs1TqdBcbe-30" value="+ Abrir(): void" style="text;align=left;verticalAlign=top;spacingLeft=4;spacingRight=4;overflow=hidden;rotatable=0;points=[[0,0.5],[1,0.5]];portConstraint=eastwest;" parent="3AB0t5_sJRTs1TqdBcbe-21" vertex="1">
          <mxGeometry y="78" width="120" height="24" as="geometry" />
        </mxCell>
        <mxCell id="3AB0t5_sJRTs1TqdBcbe-32" value="Gênero" style="swimlane;fontStyle=2;align=center;verticalAlign=top;childLayout=stackLayout;horizontal=1;startSize=26;horizontalStack=0;resizeParent=1;resizeLast=0;collapsible=1;marginBottom=0;rounded=0;shadow=0;strokeWidth=1;" parent="1" vertex="1">
          <mxGeometry x="30" y="70" width="180" height="270" as="geometry">
            <mxRectangle x="230" y="140" width="160" height="26" as="alternateBounds" />
          </mxGeometry>
        </mxCell>
        <mxCell id="3AB0t5_sJRTs1TqdBcbe-33" value="- id: int" style="text;align=left;verticalAlign=top;spacingLeft=4;spacingRight=4;overflow=hidden;rotatable=0;points=[[0,0.5],[1,0.5]];portConstraint=eastwest;" parent="3AB0t5_sJRTs1TqdBcbe-32" vertex="1">
          <mxGeometry y="26" width="180" height="26" as="geometry" />
        </mxCell>
        <mxCell id="3AB0t5_sJRTs1TqdBcbe-34" value="- descricao: str" style="text;align=left;verticalAlign=top;spacingLeft=4;spacingRight=4;overflow=hidden;rotatable=0;points=[[0,0.5],[1,0.5]];portConstraint=eastwest;rounded=0;shadow=0;html=0;" parent="3AB0t5_sJRTs1TqdBcbe-32" vertex="1">
          <mxGeometry y="52" width="180" height="26" as="geometry" />
        </mxCell>
        <mxCell id="3AB0t5_sJRTs1TqdBcbe-35" value="" style="line;html=1;strokeWidth=1;align=left;verticalAlign=middle;spacingTop=-1;spacingLeft=3;spacingRight=3;rotatable=0;labelPosition=right;points=[];portConstraint=eastwest;" parent="3AB0t5_sJRTs1TqdBcbe-32" vertex="1">
          <mxGeometry y="78" width="180" height="10" as="geometry" />
        </mxCell>
        <mxCell id="3AB0t5_sJRTs1TqdBcbe-36" value="+ Gênero(id: int, descricao: str)" style="text;align=left;verticalAlign=top;spacingLeft=4;spacingRight=4;overflow=hidden;rotatable=0;points=[[0,0.5],[1,0.5]];portConstraint=eastwest;" parent="3AB0t5_sJRTs1TqdBcbe-32" vertex="1">
          <mxGeometry y="88" width="180" height="22" as="geometry" />
        </mxCell>
        <mxCell id="3AB0t5_sJRTs1TqdBcbe-37" value="+ Set_Id(id: int): void" style="text;align=left;verticalAlign=top;spacingLeft=4;spacingRight=4;overflow=hidden;rotatable=0;points=[[0,0.5],[1,0.5]];portConstraint=eastwest;" parent="3AB0t5_sJRTs1TqdBcbe-32" vertex="1">
          <mxGeometry y="110" width="180" height="26" as="geometry" />
        </mxCell>
        <mxCell id="3AB0t5_sJRTs1TqdBcbe-38" value="+ Set_Descricao(d: str): void" style="text;align=left;verticalAlign=top;spacingLeft=4;spacingRight=4;overflow=hidden;rotatable=0;points=[[0,0.5],[1,0.5]];portConstraint=eastwest;" parent="3AB0t5_sJRTs1TqdBcbe-32" vertex="1">
          <mxGeometry y="136" width="180" height="26" as="geometry" />
        </mxCell>
        <mxCell id="3AB0t5_sJRTs1TqdBcbe-39" value="+ Get_Id(): int" style="text;align=left;verticalAlign=top;spacingLeft=4;spacingRight=4;overflow=hidden;rotatable=0;points=[[0,0.5],[1,0.5]];portConstraint=eastwest;" parent="3AB0t5_sJRTs1TqdBcbe-32" vertex="1">
          <mxGeometry y="162" width="180" height="26" as="geometry" />
        </mxCell>
        <mxCell id="3AB0t5_sJRTs1TqdBcbe-40" value="+ Get_Descricao(): str" style="text;align=left;verticalAlign=top;spacingLeft=4;spacingRight=4;overflow=hidden;rotatable=0;points=[[0,0.5],[1,0.5]];portConstraint=eastwest;" parent="3AB0t5_sJRTs1TqdBcbe-32" vertex="1">
          <mxGeometry y="188" width="180" height="26" as="geometry" />
        </mxCell>
        <mxCell id="3AB0t5_sJRTs1TqdBcbe-41" value="+ ToString(): str" style="text;align=left;verticalAlign=top;spacingLeft=4;spacingRight=4;overflow=hidden;rotatable=0;points=[[0,0.5],[1,0.5]];portConstraint=eastwest;" parent="3AB0t5_sJRTs1TqdBcbe-32" vertex="1">
          <mxGeometry y="214" width="180" height="26" as="geometry" />
        </mxCell>
        <mxCell id="3AB0t5_sJRTs1TqdBcbe-42" value="+ To_Dict(): dict" style="text;align=left;verticalAlign=top;spacingLeft=4;spacingRight=4;overflow=hidden;rotatable=0;points=[[0,0.5],[1,0.5]];portConstraint=eastwest;" parent="3AB0t5_sJRTs1TqdBcbe-32" vertex="1">
          <mxGeometry y="240" width="180" height="26" as="geometry" />
        </mxCell>
        <mxCell id="3AB0t5_sJRTs1TqdBcbe-43" value="&lt;&lt;static&gt;&gt;&#xa;Gêneros" style="swimlane;fontStyle=2;align=center;verticalAlign=top;childLayout=stackLayout;horizontal=1;startSize=42;horizontalStack=0;resizeParent=1;resizeLast=0;collapsible=1;marginBottom=0;rounded=0;shadow=0;strokeWidth=1;" parent="1" vertex="1">
          <mxGeometry x="933" y="980" width="121" height="110" as="geometry">
            <mxRectangle x="230" y="140" width="160" height="26" as="alternateBounds" />
          </mxGeometry>
        </mxCell>
        <mxCell id="3AB0t5_sJRTs1TqdBcbe-45" value="" style="line;html=1;strokeWidth=1;align=left;verticalAlign=middle;spacingTop=-1;spacingLeft=3;spacingRight=3;rotatable=0;labelPosition=right;points=[];portConstraint=eastwest;" parent="3AB0t5_sJRTs1TqdBcbe-43" vertex="1">
          <mxGeometry y="42" width="121" height="10" as="geometry" />
        </mxCell>
        <mxCell id="3AB0t5_sJRTs1TqdBcbe-51" value="+ Salvar(): void" style="text;align=left;verticalAlign=top;spacingLeft=4;spacingRight=4;overflow=hidden;rotatable=0;points=[[0,0.5],[1,0.5]];portConstraint=eastwest;" parent="3AB0t5_sJRTs1TqdBcbe-43" vertex="1">
          <mxGeometry y="52" width="121" height="26" as="geometry" />
        </mxCell>
        <mxCell id="3AB0t5_sJRTs1TqdBcbe-52" value="+ Abrir(): void" style="text;align=left;verticalAlign=top;spacingLeft=4;spacingRight=4;overflow=hidden;rotatable=0;points=[[0,0.5],[1,0.5]];portConstraint=eastwest;" parent="3AB0t5_sJRTs1TqdBcbe-43" vertex="1">
          <mxGeometry y="78" width="121" height="24" as="geometry" />
        </mxCell>
        <mxCell id="3AB0t5_sJRTs1TqdBcbe-54" value="Livro" style="swimlane;fontStyle=2;align=center;verticalAlign=top;childLayout=stackLayout;horizontal=1;startSize=26;horizontalStack=0;resizeParent=1;resizeLast=0;collapsible=1;marginBottom=0;rounded=0;shadow=0;strokeWidth=1;" parent="1" vertex="1">
          <mxGeometry x="330" y="70" width="325" height="502" as="geometry">
            <mxRectangle x="230" y="140" width="160" height="26" as="alternateBounds" />
          </mxGeometry>
        </mxCell>
        <mxCell id="SJzPHD_1Gn2At19BkOxS-2" value="- id: int" style="text;align=left;verticalAlign=top;spacingLeft=4;spacingRight=4;overflow=hidden;rotatable=0;points=[[0,0.5],[1,0.5]];portConstraint=eastwest;rounded=0;shadow=0;html=0;" parent="3AB0t5_sJRTs1TqdBcbe-54" vertex="1">
          <mxGeometry y="26" width="325" height="26" as="geometry" />
        </mxCell>
        <mxCell id="3AB0t5_sJRTs1TqdBcbe-56" value="- titulo: str" style="text;align=left;verticalAlign=top;spacingLeft=4;spacingRight=4;overflow=hidden;rotatable=0;points=[[0,0.5],[1,0.5]];portConstraint=eastwest;rounded=0;shadow=0;html=0;" parent="3AB0t5_sJRTs1TqdBcbe-54" vertex="1">
          <mxGeometry y="52" width="325" height="26" as="geometry" />
        </mxCell>
        <mxCell id="3AB0t5_sJRTs1TqdBcbe-57" value="- autor: str" style="text;align=left;verticalAlign=top;spacingLeft=4;spacingRight=4;overflow=hidden;rotatable=0;points=[[0,0.5],[1,0.5]];portConstraint=eastwest;rounded=0;shadow=0;html=0;" parent="3AB0t5_sJRTs1TqdBcbe-54" vertex="1">
          <mxGeometry y="78" width="325" height="24" as="geometry" />
        </mxCell>
        <mxCell id="3AB0t5_sJRTs1TqdBcbe-58" value="- ano: int" style="text;align=left;verticalAlign=top;spacingLeft=4;spacingRight=4;overflow=hidden;rotatable=0;points=[[0,0.5],[1,0.5]];portConstraint=eastwest;rounded=0;shadow=0;html=0;" parent="3AB0t5_sJRTs1TqdBcbe-54" vertex="1">
          <mxGeometry y="102" width="325" height="24" as="geometry" />
        </mxCell>
        <mxCell id="3AB0t5_sJRTs1TqdBcbe-55" value="- id_genero: int" style="text;align=left;verticalAlign=top;spacingLeft=4;spacingRight=4;overflow=hidden;rotatable=0;points=[[0,0.5],[1,0.5]];portConstraint=eastwest;" parent="3AB0t5_sJRTs1TqdBcbe-54" vertex="1">
          <mxGeometry y="126" width="325" height="26" as="geometry" />
        </mxCell>
        <mxCell id="3AB0t5_sJRTs1TqdBcbe-60" value="" style="line;html=1;strokeWidth=1;align=left;verticalAlign=middle;spacingTop=-1;spacingLeft=3;spacingRight=3;rotatable=0;labelPosition=right;points=[];portConstraint=eastwest;" parent="3AB0t5_sJRTs1TqdBcbe-54" vertex="1">
          <mxGeometry y="152" width="325" height="10" as="geometry" />
        </mxCell>
        <mxCell id="3AB0t5_sJRTs1TqdBcbe-61" value="+ Livro (id: int, titulo: str, autor: str, ano: int, id_genero: int)" style="text;align=left;verticalAlign=top;spacingLeft=4;spacingRight=4;overflow=hidden;rotatable=0;points=[[0,0.5],[1,0.5]];portConstraint=eastwest;" parent="3AB0t5_sJRTs1TqdBcbe-54" vertex="1">
          <mxGeometry y="162" width="325" height="26" as="geometry" />
        </mxCell>
        <mxCell id="SJzPHD_1Gn2At19BkOxS-3" value="+ Set_Id(id: int): void" style="text;align=left;verticalAlign=top;spacingLeft=4;spacingRight=4;overflow=hidden;rotatable=0;points=[[0,0.5],[1,0.5]];portConstraint=eastwest;" parent="3AB0t5_sJRTs1TqdBcbe-54" vertex="1">
          <mxGeometry y="188" width="325" height="26" as="geometry" />
        </mxCell>
        <mxCell id="3AB0t5_sJRTs1TqdBcbe-63" value="+ Set_Titulo(tit: str): void" style="text;align=left;verticalAlign=top;spacingLeft=4;spacingRight=4;overflow=hidden;rotatable=0;points=[[0,0.5],[1,0.5]];portConstraint=eastwest;" parent="3AB0t5_sJRTs1TqdBcbe-54" vertex="1">
          <mxGeometry y="214" width="325" height="26" as="geometry" />
        </mxCell>
        <mxCell id="3AB0t5_sJRTs1TqdBcbe-64" value="+ Set_Autor(aut: str): void" style="text;align=left;verticalAlign=top;spacingLeft=4;spacingRight=4;overflow=hidden;rotatable=0;points=[[0,0.5],[1,0.5]];portConstraint=eastwest;" parent="3AB0t5_sJRTs1TqdBcbe-54" vertex="1">
          <mxGeometry y="240" width="325" height="26" as="geometry" />
        </mxCell>
        <mxCell id="3AB0t5_sJRTs1TqdBcbe-65" value="+ Set_Ano(ano: int): void" style="text;align=left;verticalAlign=top;spacingLeft=4;spacingRight=4;overflow=hidden;rotatable=0;points=[[0,0.5],[1,0.5]];portConstraint=eastwest;" parent="3AB0t5_sJRTs1TqdBcbe-54" vertex="1">
          <mxGeometry y="266" width="325" height="26" as="geometry" />
        </mxCell>
        <mxCell id="3AB0t5_sJRTs1TqdBcbe-66" value="+ Set_Id_Genero(gen: Genero): void" style="text;align=left;verticalAlign=top;spacingLeft=4;spacingRight=4;overflow=hidden;rotatable=0;points=[[0,0.5],[1,0.5]];portConstraint=eastwest;" parent="3AB0t5_sJRTs1TqdBcbe-54" vertex="1">
          <mxGeometry y="292" width="325" height="26" as="geometry" />
        </mxCell>
        <mxCell id="3AB0t5_sJRTs1TqdBcbe-68" value="+ Get_Id(): int" style="text;align=left;verticalAlign=top;spacingLeft=4;spacingRight=4;overflow=hidden;rotatable=0;points=[[0,0.5],[1,0.5]];portConstraint=eastwest;" parent="3AB0t5_sJRTs1TqdBcbe-54" vertex="1">
          <mxGeometry y="318" width="325" height="26" as="geometry" />
        </mxCell>
        <mxCell id="SJzPHD_1Gn2At19BkOxS-4" value="+ Get_Titulo(): str" style="text;align=left;verticalAlign=top;spacingLeft=4;spacingRight=4;overflow=hidden;rotatable=0;points=[[0,0.5],[1,0.5]];portConstraint=eastwest;" parent="3AB0t5_sJRTs1TqdBcbe-54" vertex="1">
          <mxGeometry y="344" width="325" height="26" as="geometry" />
        </mxCell>
        <mxCell id="3AB0t5_sJRTs1TqdBcbe-69" value="+ Get_Autor(): str" style="text;align=left;verticalAlign=top;spacingLeft=4;spacingRight=4;overflow=hidden;rotatable=0;points=[[0,0.5],[1,0.5]];portConstraint=eastwest;" parent="3AB0t5_sJRTs1TqdBcbe-54" vertex="1">
          <mxGeometry y="370" width="325" height="26" as="geometry" />
        </mxCell>
        <mxCell id="3AB0t5_sJRTs1TqdBcbe-70" value="+ Get_Ano(): int" style="text;align=left;verticalAlign=top;spacingLeft=4;spacingRight=4;overflow=hidden;rotatable=0;points=[[0,0.5],[1,0.5]];portConstraint=eastwest;" parent="3AB0t5_sJRTs1TqdBcbe-54" vertex="1">
          <mxGeometry y="396" width="325" height="26" as="geometry" />
        </mxCell>
        <mxCell id="3AB0t5_sJRTs1TqdBcbe-71" value="+ Get_Id_Genero(): int" style="text;align=left;verticalAlign=top;spacingLeft=4;spacingRight=4;overflow=hidden;rotatable=0;points=[[0,0.5],[1,0.5]];portConstraint=eastwest;" parent="3AB0t5_sJRTs1TqdBcbe-54" vertex="1">
          <mxGeometry y="422" width="325" height="26" as="geometry" />
        </mxCell>
        <mxCell id="3AB0t5_sJRTs1TqdBcbe-72" value="+ ToString(): str" style="text;align=left;verticalAlign=top;spacingLeft=4;spacingRight=4;overflow=hidden;rotatable=0;points=[[0,0.5],[1,0.5]];portConstraint=eastwest;" parent="3AB0t5_sJRTs1TqdBcbe-54" vertex="1">
          <mxGeometry y="448" width="325" height="26" as="geometry" />
        </mxCell>
        <mxCell id="3AB0t5_sJRTs1TqdBcbe-73" value="+ To_Dict(): dict" style="text;align=left;verticalAlign=top;spacingLeft=4;spacingRight=4;overflow=hidden;rotatable=0;points=[[0,0.5],[1,0.5]];portConstraint=eastwest;" parent="3AB0t5_sJRTs1TqdBcbe-54" vertex="1">
          <mxGeometry y="474" width="325" height="26" as="geometry" />
        </mxCell>
        <mxCell id="st0J9N4TLg85rTO5cKsw-150" style="edgeStyle=orthogonalEdgeStyle;rounded=0;orthogonalLoop=1;jettySize=auto;html=1;exitX=0.5;exitY=0;exitDx=0;exitDy=0;entryX=0.5;entryY=1;entryDx=0;entryDy=0;endArrow=block;endFill=0;" parent="1" source="3AB0t5_sJRTs1TqdBcbe-74" target="st0J9N4TLg85rTO5cKsw-133" edge="1">
          <mxGeometry relative="1" as="geometry" />
        </mxCell>
        <mxCell id="3AB0t5_sJRTs1TqdBcbe-74" value="&lt;&lt;static&gt;&gt;&#xa;Livros" style="swimlane;fontStyle=2;align=center;verticalAlign=top;childLayout=stackLayout;horizontal=1;startSize=42;horizontalStack=0;resizeParent=1;resizeLast=0;collapsible=1;marginBottom=0;rounded=0;shadow=0;strokeWidth=1;" parent="1" vertex="1">
          <mxGeometry x="1183" y="1080" width="111" height="110" as="geometry">
            <mxRectangle x="230" y="140" width="160" height="26" as="alternateBounds" />
          </mxGeometry>
        </mxCell>
        <mxCell id="3AB0t5_sJRTs1TqdBcbe-76" value="" style="line;html=1;strokeWidth=1;align=left;verticalAlign=middle;spacingTop=-1;spacingLeft=3;spacingRight=3;rotatable=0;labelPosition=right;points=[];portConstraint=eastwest;" parent="3AB0t5_sJRTs1TqdBcbe-74" vertex="1">
          <mxGeometry y="42" width="111" height="10" as="geometry" />
        </mxCell>
        <mxCell id="3AB0t5_sJRTs1TqdBcbe-82" value="+ Salvar(): void" style="text;align=left;verticalAlign=top;spacingLeft=4;spacingRight=4;overflow=hidden;rotatable=0;points=[[0,0.5],[1,0.5]];portConstraint=eastwest;" parent="3AB0t5_sJRTs1TqdBcbe-74" vertex="1">
          <mxGeometry y="52" width="111" height="26" as="geometry" />
        </mxCell>
        <mxCell id="3AB0t5_sJRTs1TqdBcbe-83" value="+ Abrir(): void" style="text;align=left;verticalAlign=top;spacingLeft=4;spacingRight=4;overflow=hidden;rotatable=0;points=[[0,0.5],[1,0.5]];portConstraint=eastwest;" parent="3AB0t5_sJRTs1TqdBcbe-74" vertex="1">
          <mxGeometry y="78" width="111" height="24" as="geometry" />
        </mxCell>
        <mxCell id="3AB0t5_sJRTs1TqdBcbe-85" value="Empréstimo" style="swimlane;fontStyle=2;align=center;verticalAlign=top;childLayout=stackLayout;horizontal=1;startSize=26;horizontalStack=0;resizeParent=1;resizeLast=0;collapsible=1;marginBottom=0;rounded=0;shadow=0;strokeWidth=1;" parent="1" vertex="1">
          <mxGeometry x="1350" y="70" width="585" height="574" as="geometry">
            <mxRectangle x="230" y="140" width="160" height="26" as="alternateBounds" />
          </mxGeometry>
        </mxCell>
        <mxCell id="3AB0t5_sJRTs1TqdBcbe-86" value="- id: int" style="text;align=left;verticalAlign=top;spacingLeft=4;spacingRight=4;overflow=hidden;rotatable=0;points=[[0,0.5],[1,0.5]];portConstraint=eastwest;" parent="3AB0t5_sJRTs1TqdBcbe-85" vertex="1">
          <mxGeometry y="26" width="585" height="26" as="geometry" />
        </mxCell>
        <mxCell id="3AB0t5_sJRTs1TqdBcbe-87" value="- data: datetime" style="text;align=left;verticalAlign=top;spacingLeft=4;spacingRight=4;overflow=hidden;rotatable=0;points=[[0,0.5],[1,0.5]];portConstraint=eastwest;rounded=0;shadow=0;html=0;" parent="3AB0t5_sJRTs1TqdBcbe-85" vertex="1">
          <mxGeometry y="52" width="585" height="26" as="geometry" />
        </mxCell>
        <mxCell id="SJzPHD_1Gn2At19BkOxS-26" value="- data_devolucao: datetime" style="text;align=left;verticalAlign=top;spacingLeft=4;spacingRight=4;overflow=hidden;rotatable=0;points=[[0,0.5],[1,0.5]];portConstraint=eastwest;rounded=0;shadow=0;html=0;" parent="3AB0t5_sJRTs1TqdBcbe-85" vertex="1">
          <mxGeometry y="78" width="585" height="24" as="geometry" />
        </mxCell>
        <mxCell id="3AB0t5_sJRTs1TqdBcbe-88" value="- prazo_extendido: int" style="text;align=left;verticalAlign=top;spacingLeft=4;spacingRight=4;overflow=hidden;rotatable=0;points=[[0,0.5],[1,0.5]];portConstraint=eastwest;rounded=0;shadow=0;html=0;" parent="3AB0t5_sJRTs1TqdBcbe-85" vertex="1">
          <mxGeometry y="102" width="585" height="24" as="geometry" />
        </mxCell>
        <mxCell id="3AB0t5_sJRTs1TqdBcbe-89" value="- id_exemplar: int" style="text;align=left;verticalAlign=top;spacingLeft=4;spacingRight=4;overflow=hidden;rotatable=0;points=[[0,0.5],[1,0.5]];portConstraint=eastwest;rounded=0;shadow=0;html=0;" parent="3AB0t5_sJRTs1TqdBcbe-85" vertex="1">
          <mxGeometry y="126" width="585" height="24" as="geometry" />
        </mxCell>
        <mxCell id="3AB0t5_sJRTs1TqdBcbe-90" value="- id_usuario: int" style="text;align=left;verticalAlign=top;spacingLeft=4;spacingRight=4;overflow=hidden;rotatable=0;points=[[0,0.5],[1,0.5]];portConstraint=eastwest;rounded=0;shadow=0;html=0;" parent="3AB0t5_sJRTs1TqdBcbe-85" vertex="1">
          <mxGeometry y="150" width="585" height="24" as="geometry" />
        </mxCell>
        <mxCell id="3AB0t5_sJRTs1TqdBcbe-91" value="" style="line;html=1;strokeWidth=1;align=left;verticalAlign=middle;spacingTop=-1;spacingLeft=3;spacingRight=3;rotatable=0;labelPosition=right;points=[];portConstraint=eastwest;" parent="3AB0t5_sJRTs1TqdBcbe-85" vertex="1">
          <mxGeometry y="174" width="585" height="10" as="geometry" />
        </mxCell>
        <mxCell id="3AB0t5_sJRTs1TqdBcbe-92" value="+ Empréstimo (id: int, data: str, data_devolucao: str,  prazo_extendido: int, id_exemplar: int, id_usuario: int)" style="text;align=left;verticalAlign=top;spacingLeft=4;spacingRight=4;overflow=hidden;rotatable=0;points=[[0,0.5],[1,0.5]];portConstraint=eastwest;" parent="3AB0t5_sJRTs1TqdBcbe-85" vertex="1">
          <mxGeometry y="184" width="585" height="26" as="geometry" />
        </mxCell>
        <mxCell id="3AB0t5_sJRTs1TqdBcbe-93" value="+ Set_Id(id: int): void" style="text;align=left;verticalAlign=top;spacingLeft=4;spacingRight=4;overflow=hidden;rotatable=0;points=[[0,0.5],[1,0.5]];portConstraint=eastwest;" parent="3AB0t5_sJRTs1TqdBcbe-85" vertex="1">
          <mxGeometry y="210" width="585" height="26" as="geometry" />
        </mxCell>
        <mxCell id="3AB0t5_sJRTs1TqdBcbe-94" value="+ Set_Data(data: datetime): void" style="text;align=left;verticalAlign=top;spacingLeft=4;spacingRight=4;overflow=hidden;rotatable=0;points=[[0,0.5],[1,0.5]];portConstraint=eastwest;" parent="3AB0t5_sJRTs1TqdBcbe-85" vertex="1">
          <mxGeometry y="236" width="585" height="26" as="geometry" />
        </mxCell>
        <mxCell id="SJzPHD_1Gn2At19BkOxS-27" value="+ Set_Data_Devolucao (data_dev: datetime): void" style="text;align=left;verticalAlign=top;spacingLeft=4;spacingRight=4;overflow=hidden;rotatable=0;points=[[0,0.5],[1,0.5]];portConstraint=eastwest;" parent="3AB0t5_sJRTs1TqdBcbe-85" vertex="1">
          <mxGeometry y="262" width="585" height="26" as="geometry" />
        </mxCell>
        <mxCell id="3AB0t5_sJRTs1TqdBcbe-95" value="+ Set_Prazo_Extendido(prazo: int): void" style="text;align=left;verticalAlign=top;spacingLeft=4;spacingRight=4;overflow=hidden;rotatable=0;points=[[0,0.5],[1,0.5]];portConstraint=eastwest;" parent="3AB0t5_sJRTs1TqdBcbe-85" vertex="1">
          <mxGeometry y="288" width="585" height="26" as="geometry" />
        </mxCell>
        <mxCell id="3AB0t5_sJRTs1TqdBcbe-96" value="+ Set_Id_Exenplar(id_exemplar: int): void" style="text;align=left;verticalAlign=top;spacingLeft=4;spacingRight=4;overflow=hidden;rotatable=0;points=[[0,0.5],[1,0.5]];portConstraint=eastwest;" parent="3AB0t5_sJRTs1TqdBcbe-85" vertex="1">
          <mxGeometry y="314" width="585" height="26" as="geometry" />
        </mxCell>
        <mxCell id="3AB0t5_sJRTs1TqdBcbe-97" value="+ Set_Id_Usuário(id_usuário: int): void" style="text;align=left;verticalAlign=top;spacingLeft=4;spacingRight=4;overflow=hidden;rotatable=0;points=[[0,0.5],[1,0.5]];portConstraint=eastwest;" parent="3AB0t5_sJRTs1TqdBcbe-85" vertex="1">
          <mxGeometry y="340" width="585" height="26" as="geometry" />
        </mxCell>
        <mxCell id="3AB0t5_sJRTs1TqdBcbe-98" value="+ Get_Id(): int" style="text;align=left;verticalAlign=top;spacingLeft=4;spacingRight=4;overflow=hidden;rotatable=0;points=[[0,0.5],[1,0.5]];portConstraint=eastwest;" parent="3AB0t5_sJRTs1TqdBcbe-85" vertex="1">
          <mxGeometry y="366" width="585" height="26" as="geometry" />
        </mxCell>
        <mxCell id="3AB0t5_sJRTs1TqdBcbe-99" value="+ Get_Data(): datetime" style="text;align=left;verticalAlign=top;spacingLeft=4;spacingRight=4;overflow=hidden;rotatable=0;points=[[0,0.5],[1,0.5]];portConstraint=eastwest;" parent="3AB0t5_sJRTs1TqdBcbe-85" vertex="1">
          <mxGeometry y="392" width="585" height="26" as="geometry" />
        </mxCell>
        <mxCell id="SJzPHD_1Gn2At19BkOxS-28" value="+ Get_Data_Devolucao(): datetime" style="text;align=left;verticalAlign=top;spacingLeft=4;spacingRight=4;overflow=hidden;rotatable=0;points=[[0,0.5],[1,0.5]];portConstraint=eastwest;" parent="3AB0t5_sJRTs1TqdBcbe-85" vertex="1">
          <mxGeometry y="418" width="585" height="26" as="geometry" />
        </mxCell>
        <mxCell id="3AB0t5_sJRTs1TqdBcbe-100" value="+ Get_Prazo_Extentido(): int" style="text;align=left;verticalAlign=top;spacingLeft=4;spacingRight=4;overflow=hidden;rotatable=0;points=[[0,0.5],[1,0.5]];portConstraint=eastwest;" parent="3AB0t5_sJRTs1TqdBcbe-85" vertex="1">
          <mxGeometry y="444" width="585" height="26" as="geometry" />
        </mxCell>
        <mxCell id="3AB0t5_sJRTs1TqdBcbe-101" value="+ Get_Id_Exemplar): int" style="text;align=left;verticalAlign=top;spacingLeft=4;spacingRight=4;overflow=hidden;rotatable=0;points=[[0,0.5],[1,0.5]];portConstraint=eastwest;" parent="3AB0t5_sJRTs1TqdBcbe-85" vertex="1">
          <mxGeometry y="470" width="585" height="26" as="geometry" />
        </mxCell>
        <mxCell id="3AB0t5_sJRTs1TqdBcbe-102" value="+ Get_Id_Usuário(): int" style="text;align=left;verticalAlign=top;spacingLeft=4;spacingRight=4;overflow=hidden;rotatable=0;points=[[0,0.5],[1,0.5]];portConstraint=eastwest;" parent="3AB0t5_sJRTs1TqdBcbe-85" vertex="1">
          <mxGeometry y="496" width="585" height="26" as="geometry" />
        </mxCell>
        <mxCell id="3AB0t5_sJRTs1TqdBcbe-103" value="+ ToString(): str" style="text;align=left;verticalAlign=top;spacingLeft=4;spacingRight=4;overflow=hidden;rotatable=0;points=[[0,0.5],[1,0.5]];portConstraint=eastwest;" parent="3AB0t5_sJRTs1TqdBcbe-85" vertex="1">
          <mxGeometry y="522" width="585" height="26" as="geometry" />
        </mxCell>
        <mxCell id="3AB0t5_sJRTs1TqdBcbe-104" value="+ To_Dict(): dict" style="text;align=left;verticalAlign=top;spacingLeft=4;spacingRight=4;overflow=hidden;rotatable=0;points=[[0,0.5],[1,0.5]];portConstraint=eastwest;" parent="3AB0t5_sJRTs1TqdBcbe-85" vertex="1">
          <mxGeometry y="548" width="585" height="26" as="geometry" />
        </mxCell>
        <mxCell id="3AB0t5_sJRTs1TqdBcbe-105" value="&lt;&lt;static&gt;&gt;&#xa;Empréstimos" style="swimlane;fontStyle=2;align=center;verticalAlign=top;childLayout=stackLayout;horizontal=1;startSize=42;horizontalStack=0;resizeParent=1;resizeLast=0;collapsible=1;marginBottom=0;rounded=0;shadow=0;strokeWidth=1;" parent="1" vertex="1">
          <mxGeometry x="1424" y="980" width="121" height="110" as="geometry">
            <mxRectangle x="230" y="140" width="160" height="26" as="alternateBounds" />
          </mxGeometry>
        </mxCell>
        <mxCell id="3AB0t5_sJRTs1TqdBcbe-107" value="" style="line;html=1;strokeWidth=1;align=left;verticalAlign=middle;spacingTop=-1;spacingLeft=3;spacingRight=3;rotatable=0;labelPosition=right;points=[];portConstraint=eastwest;" parent="3AB0t5_sJRTs1TqdBcbe-105" vertex="1">
          <mxGeometry y="42" width="121" height="10" as="geometry" />
        </mxCell>
        <mxCell id="3AB0t5_sJRTs1TqdBcbe-113" value="+ Salvar(): void" style="text;align=left;verticalAlign=top;spacingLeft=4;spacingRight=4;overflow=hidden;rotatable=0;points=[[0,0.5],[1,0.5]];portConstraint=eastwest;" parent="3AB0t5_sJRTs1TqdBcbe-105" vertex="1">
          <mxGeometry y="52" width="121" height="26" as="geometry" />
        </mxCell>
        <mxCell id="3AB0t5_sJRTs1TqdBcbe-114" value="+ Abrir(): void" style="text;align=left;verticalAlign=top;spacingLeft=4;spacingRight=4;overflow=hidden;rotatable=0;points=[[0,0.5],[1,0.5]];portConstraint=eastwest;" parent="3AB0t5_sJRTs1TqdBcbe-105" vertex="1">
          <mxGeometry y="78" width="121" height="24" as="geometry" />
        </mxCell>
        <mxCell id="3AB0t5_sJRTs1TqdBcbe-118" value="Exemplar" style="swimlane;fontStyle=2;align=center;verticalAlign=top;childLayout=stackLayout;horizontal=1;startSize=26;horizontalStack=0;resizeParent=1;resizeLast=0;collapsible=1;marginBottom=0;rounded=0;shadow=0;strokeWidth=1;" parent="1" vertex="1">
          <mxGeometry x="771" y="70" width="466" height="576" as="geometry">
            <mxRectangle x="230" y="140" width="160" height="26" as="alternateBounds" />
          </mxGeometry>
        </mxCell>
        <mxCell id="3AB0t5_sJRTs1TqdBcbe-119" value="- id: int" style="text;align=left;verticalAlign=top;spacingLeft=4;spacingRight=4;overflow=hidden;rotatable=0;points=[[0,0.5],[1,0.5]];portConstraint=eastwest;" parent="3AB0t5_sJRTs1TqdBcbe-118" vertex="1">
          <mxGeometry y="26" width="466" height="26" as="geometry" />
        </mxCell>
        <mxCell id="3AB0t5_sJRTs1TqdBcbe-120" value="- edicao: int" style="text;align=left;verticalAlign=top;spacingLeft=4;spacingRight=4;overflow=hidden;rotatable=0;points=[[0,0.5],[1,0.5]];portConstraint=eastwest;rounded=0;shadow=0;html=0;" parent="3AB0t5_sJRTs1TqdBcbe-118" vertex="1">
          <mxGeometry y="52" width="466" height="26" as="geometry" />
        </mxCell>
        <mxCell id="SJzPHD_1Gn2At19BkOxS-18" value="- editora: str" style="text;align=left;verticalAlign=top;spacingLeft=4;spacingRight=4;overflow=hidden;rotatable=0;points=[[0,0.5],[1,0.5]];portConstraint=eastwest;rounded=0;shadow=0;html=0;" parent="3AB0t5_sJRTs1TqdBcbe-118" vertex="1">
          <mxGeometry y="78" width="466" height="26" as="geometry" />
        </mxCell>
        <mxCell id="3AB0t5_sJRTs1TqdBcbe-121" value="- situacao: bool" style="text;align=left;verticalAlign=top;spacingLeft=4;spacingRight=4;overflow=hidden;rotatable=0;points=[[0,0.5],[1,0.5]];portConstraint=eastwest;rounded=0;shadow=0;html=0;" parent="3AB0t5_sJRTs1TqdBcbe-118" vertex="1">
          <mxGeometry y="104" width="466" height="24" as="geometry" />
        </mxCell>
        <mxCell id="3AB0t5_sJRTs1TqdBcbe-123" value="- id_livro: int" style="text;align=left;verticalAlign=top;spacingLeft=4;spacingRight=4;overflow=hidden;rotatable=0;points=[[0,0.5],[1,0.5]];portConstraint=eastwest;rounded=0;shadow=0;html=0;" parent="3AB0t5_sJRTs1TqdBcbe-118" vertex="1">
          <mxGeometry y="128" width="466" height="24" as="geometry" />
        </mxCell>
        <mxCell id="SJzPHD_1Gn2At19BkOxS-15" value="- id_genero: int" style="text;align=left;verticalAlign=top;spacingLeft=4;spacingRight=4;overflow=hidden;rotatable=0;points=[[0,0.5],[1,0.5]];portConstraint=eastwest;rounded=0;shadow=0;html=0;" parent="3AB0t5_sJRTs1TqdBcbe-118" vertex="1">
          <mxGeometry y="152" width="466" height="24" as="geometry" />
        </mxCell>
        <mxCell id="3AB0t5_sJRTs1TqdBcbe-124" value="" style="line;html=1;strokeWidth=1;align=left;verticalAlign=middle;spacingTop=-1;spacingLeft=3;spacingRight=3;rotatable=0;labelPosition=right;points=[];portConstraint=eastwest;" parent="3AB0t5_sJRTs1TqdBcbe-118" vertex="1">
          <mxGeometry y="176" width="466" height="10" as="geometry" />
        </mxCell>
        <mxCell id="3AB0t5_sJRTs1TqdBcbe-125" value="+ Exemplar (id: int, edicao: int, editora: str,  situacao: bool, id_livro: int, id_genero: int)" style="text;align=left;verticalAlign=top;spacingLeft=4;spacingRight=4;overflow=hidden;rotatable=0;points=[[0,0.5],[1,0.5]];portConstraint=eastwest;" parent="3AB0t5_sJRTs1TqdBcbe-118" vertex="1">
          <mxGeometry y="186" width="466" height="26" as="geometry" />
        </mxCell>
        <mxCell id="3AB0t5_sJRTs1TqdBcbe-126" value="+ Set_Id(id: int): void" style="text;align=left;verticalAlign=top;spacingLeft=4;spacingRight=4;overflow=hidden;rotatable=0;points=[[0,0.5],[1,0.5]];portConstraint=eastwest;" parent="3AB0t5_sJRTs1TqdBcbe-118" vertex="1">
          <mxGeometry y="212" width="466" height="26" as="geometry" />
        </mxCell>
        <mxCell id="3AB0t5_sJRTs1TqdBcbe-127" value="+ Set_Edicao(ed: int): void" style="text;align=left;verticalAlign=top;spacingLeft=4;spacingRight=4;overflow=hidden;rotatable=0;points=[[0,0.5],[1,0.5]];portConstraint=eastwest;" parent="3AB0t5_sJRTs1TqdBcbe-118" vertex="1">
          <mxGeometry y="238" width="466" height="26" as="geometry" />
        </mxCell>
        <mxCell id="SJzPHD_1Gn2At19BkOxS-19" value="+ Set_Editora(edit: str): void" style="text;align=left;verticalAlign=top;spacingLeft=4;spacingRight=4;overflow=hidden;rotatable=0;points=[[0,0.5],[1,0.5]];portConstraint=eastwest;" parent="3AB0t5_sJRTs1TqdBcbe-118" vertex="1">
          <mxGeometry y="264" width="466" height="26" as="geometry" />
        </mxCell>
        <mxCell id="3AB0t5_sJRTs1TqdBcbe-128" value="+ Set_Situacao(sit: bool): void" style="text;align=left;verticalAlign=top;spacingLeft=4;spacingRight=4;overflow=hidden;rotatable=0;points=[[0,0.5],[1,0.5]];portConstraint=eastwest;" parent="3AB0t5_sJRTs1TqdBcbe-118" vertex="1">
          <mxGeometry y="290" width="466" height="26" as="geometry" />
        </mxCell>
        <mxCell id="3AB0t5_sJRTs1TqdBcbe-129" value="+ Set_Id_Livro(id_livro: int): void" style="text;align=left;verticalAlign=top;spacingLeft=4;spacingRight=4;overflow=hidden;rotatable=0;points=[[0,0.5],[1,0.5]];portConstraint=eastwest;" parent="3AB0t5_sJRTs1TqdBcbe-118" vertex="1">
          <mxGeometry y="316" width="466" height="26" as="geometry" />
        </mxCell>
        <mxCell id="SJzPHD_1Gn2At19BkOxS-16" value="+ Set_Id_Genero(id_genero: int): void" style="text;align=left;verticalAlign=top;spacingLeft=4;spacingRight=4;overflow=hidden;rotatable=0;points=[[0,0.5],[1,0.5]];portConstraint=eastwest;" parent="3AB0t5_sJRTs1TqdBcbe-118" vertex="1">
          <mxGeometry y="342" width="466" height="26" as="geometry" />
        </mxCell>
        <mxCell id="3AB0t5_sJRTs1TqdBcbe-131" value="+ Get_Id(): int" style="text;align=left;verticalAlign=top;spacingLeft=4;spacingRight=4;overflow=hidden;rotatable=0;points=[[0,0.5],[1,0.5]];portConstraint=eastwest;" parent="3AB0t5_sJRTs1TqdBcbe-118" vertex="1">
          <mxGeometry y="368" width="466" height="26" as="geometry" />
        </mxCell>
        <mxCell id="3AB0t5_sJRTs1TqdBcbe-132" value="+ Get_Edicao(): int" style="text;align=left;verticalAlign=top;spacingLeft=4;spacingRight=4;overflow=hidden;rotatable=0;points=[[0,0.5],[1,0.5]];portConstraint=eastwest;" parent="3AB0t5_sJRTs1TqdBcbe-118" vertex="1">
          <mxGeometry y="394" width="466" height="26" as="geometry" />
        </mxCell>
        <mxCell id="SJzPHD_1Gn2At19BkOxS-20" value="+ Get_Editora(): str" style="text;align=left;verticalAlign=top;spacingLeft=4;spacingRight=4;overflow=hidden;rotatable=0;points=[[0,0.5],[1,0.5]];portConstraint=eastwest;" parent="3AB0t5_sJRTs1TqdBcbe-118" vertex="1">
          <mxGeometry y="420" width="466" height="26" as="geometry" />
        </mxCell>
        <mxCell id="3AB0t5_sJRTs1TqdBcbe-133" value="+ Get_Situacao(): bool" style="text;align=left;verticalAlign=top;spacingLeft=4;spacingRight=4;overflow=hidden;rotatable=0;points=[[0,0.5],[1,0.5]];portConstraint=eastwest;" parent="3AB0t5_sJRTs1TqdBcbe-118" vertex="1">
          <mxGeometry y="446" width="466" height="26" as="geometry" />
        </mxCell>
        <mxCell id="SJzPHD_1Gn2At19BkOxS-7" value="+ Get_Id_Livro(): int" style="text;align=left;verticalAlign=top;spacingLeft=4;spacingRight=4;overflow=hidden;rotatable=0;points=[[0,0.5],[1,0.5]];portConstraint=eastwest;" parent="3AB0t5_sJRTs1TqdBcbe-118" vertex="1">
          <mxGeometry y="472" width="466" height="26" as="geometry" />
        </mxCell>
        <mxCell id="SJzPHD_1Gn2At19BkOxS-17" value="+ Get_Id_Genero(): int" style="text;align=left;verticalAlign=top;spacingLeft=4;spacingRight=4;overflow=hidden;rotatable=0;points=[[0,0.5],[1,0.5]];portConstraint=eastwest;" parent="3AB0t5_sJRTs1TqdBcbe-118" vertex="1">
          <mxGeometry y="498" width="466" height="26" as="geometry" />
        </mxCell>
        <mxCell id="3AB0t5_sJRTs1TqdBcbe-136" value="+ ToString(): str" style="text;align=left;verticalAlign=top;spacingLeft=4;spacingRight=4;overflow=hidden;rotatable=0;points=[[0,0.5],[1,0.5]];portConstraint=eastwest;" parent="3AB0t5_sJRTs1TqdBcbe-118" vertex="1">
          <mxGeometry y="524" width="466" height="26" as="geometry" />
        </mxCell>
        <mxCell id="3AB0t5_sJRTs1TqdBcbe-137" value="+ To_Dict(): dict" style="text;align=left;verticalAlign=top;spacingLeft=4;spacingRight=4;overflow=hidden;rotatable=0;points=[[0,0.5],[1,0.5]];portConstraint=eastwest;" parent="3AB0t5_sJRTs1TqdBcbe-118" vertex="1">
          <mxGeometry y="550" width="466" height="26" as="geometry" />
        </mxCell>
        <mxCell id="3AB0t5_sJRTs1TqdBcbe-138" value="&lt;&lt;static&gt;&gt;&#xa;Exemplares" style="swimlane;fontStyle=2;align=center;verticalAlign=top;childLayout=stackLayout;horizontal=1;startSize=42;horizontalStack=0;resizeParent=1;resizeLast=0;collapsible=1;marginBottom=0;rounded=0;shadow=0;strokeWidth=1;" parent="1" vertex="1">
          <mxGeometry x="1424" y="800" width="121" height="110" as="geometry">
            <mxRectangle x="230" y="140" width="160" height="26" as="alternateBounds" />
          </mxGeometry>
        </mxCell>
        <mxCell id="3AB0t5_sJRTs1TqdBcbe-140" value="" style="line;html=1;strokeWidth=1;align=left;verticalAlign=middle;spacingTop=-1;spacingLeft=3;spacingRight=3;rotatable=0;labelPosition=right;points=[];portConstraint=eastwest;" parent="3AB0t5_sJRTs1TqdBcbe-138" vertex="1">
          <mxGeometry y="42" width="121" height="10" as="geometry" />
        </mxCell>
        <mxCell id="3AB0t5_sJRTs1TqdBcbe-147" value="+ Salvar(): void" style="text;align=left;verticalAlign=top;spacingLeft=4;spacingRight=4;overflow=hidden;rotatable=0;points=[[0,0.5],[1,0.5]];portConstraint=eastwest;" parent="3AB0t5_sJRTs1TqdBcbe-138" vertex="1">
          <mxGeometry y="52" width="121" height="26" as="geometry" />
        </mxCell>
        <mxCell id="3AB0t5_sJRTs1TqdBcbe-141" value="+ Abrir(): void" style="text;align=left;verticalAlign=top;spacingLeft=4;spacingRight=4;overflow=hidden;rotatable=0;points=[[0,0.5],[1,0.5]];portConstraint=eastwest;" parent="3AB0t5_sJRTs1TqdBcbe-138" vertex="1">
          <mxGeometry y="78" width="121" height="24" as="geometry" />
        </mxCell>
        <mxCell id="3AB0t5_sJRTs1TqdBcbe-149" value="&lt;&lt;static&gt;&gt;&#xa;View_Python" style="swimlane;fontStyle=2;align=center;verticalAlign=top;childLayout=stackLayout;horizontal=1;startSize=40;horizontalStack=0;resizeParent=1;resizeLast=0;collapsible=1;marginBottom=0;rounded=0;shadow=0;strokeWidth=1;fillColor=#d5e8d4;strokeColor=#82b366;" parent="1" vertex="1">
          <mxGeometry x="-770" y="761" width="560" height="830" as="geometry">
            <mxRectangle x="230" y="140" width="160" height="26" as="alternateBounds" />
          </mxGeometry>
        </mxCell>
        <mxCell id="3AB0t5_sJRTs1TqdBcbe-150" value="" style="line;html=1;strokeWidth=1;align=left;verticalAlign=middle;spacingTop=-1;spacingLeft=3;spacingRight=3;rotatable=0;labelPosition=right;points=[];portConstraint=eastwest;" parent="3AB0t5_sJRTs1TqdBcbe-149" vertex="1">
          <mxGeometry y="40" width="560" height="10" as="geometry" />
        </mxCell>
        <mxCell id="3AB0t5_sJRTs1TqdBcbe-151" value="+ Admin_Listar(): List&lt;Usuarios&gt;" style="text;align=left;verticalAlign=top;spacingLeft=4;spacingRight=4;overflow=hidden;rotatable=0;points=[[0,0.5],[1,0.5]];portConstraint=eastwest;" parent="3AB0t5_sJRTs1TqdBcbe-149" vertex="1">
          <mxGeometry y="50" width="560" height="26" as="geometry" />
        </mxCell>
        <mxCell id="SJzPHD_1Gn2At19BkOxS-9" value="+ Admin_Inserir(nome: str, email: str, fone: str, senha: str, tipo_usuario: int): void" style="text;align=left;verticalAlign=top;spacingLeft=4;spacingRight=4;overflow=hidden;rotatable=0;points=[[0,0.5],[1,0.5]];portConstraint=eastwest;" parent="3AB0t5_sJRTs1TqdBcbe-149" vertex="1">
          <mxGeometry y="76" width="560" height="26" as="geometry" />
        </mxCell>
        <mxCell id="SJzPHD_1Gn2At19BkOxS-14" value="+ Admin_Atualizar(id: int, nome: str, email: str, fone: str, senha: str): void" style="text;align=left;verticalAlign=top;spacingLeft=4;spacingRight=4;overflow=hidden;rotatable=0;points=[[0,0.5],[1,0.5]];portConstraint=eastwest;" parent="3AB0t5_sJRTs1TqdBcbe-149" vertex="1">
          <mxGeometry y="102" width="560" height="26" as="geometry" />
        </mxCell>
        <mxCell id="ha1w1WFY_oq6MlDH5Q_z-13" value="+ Admin_Excluir(id: int): void" style="text;align=left;verticalAlign=top;spacingLeft=4;spacingRight=4;overflow=hidden;rotatable=0;points=[[0,0.5],[1,0.5]];portConstraint=eastwest;" parent="3AB0t5_sJRTs1TqdBcbe-149" vertex="1">
          <mxGeometry y="128" width="560" height="26" as="geometry" />
        </mxCell>
        <mxCell id="3AB0t5_sJRTs1TqdBcbe-152" value="+ Usuario_Autenticar(email: str, senha: str): void" style="text;align=left;verticalAlign=top;spacingLeft=4;spacingRight=4;overflow=hidden;rotatable=0;points=[[0,0.5],[1,0.5]];portConstraint=eastwest;" parent="3AB0t5_sJRTs1TqdBcbe-149" vertex="1">
          <mxGeometry y="154" width="560" height="26" as="geometry" />
        </mxCell>
        <mxCell id="3AB0t5_sJRTs1TqdBcbe-153" value="+ Usuario_Listar(): List&lt;Usuarios&gt;" style="text;align=left;verticalAlign=top;spacingLeft=4;spacingRight=4;overflow=hidden;rotatable=0;points=[[0,0.5],[1,0.5]];portConstraint=eastwest;" parent="3AB0t5_sJRTs1TqdBcbe-149" vertex="1">
          <mxGeometry y="180" width="560" height="26" as="geometry" />
        </mxCell>
        <mxCell id="ha1w1WFY_oq6MlDH5Q_z-14" value="+ Funcionario_Listar(): List&lt;Usuarios&gt;" style="text;align=left;verticalAlign=top;spacingLeft=4;spacingRight=4;overflow=hidden;rotatable=0;points=[[0,0.5],[1,0.5]];portConstraint=eastwest;" parent="3AB0t5_sJRTs1TqdBcbe-149" vertex="1">
          <mxGeometry y="206" width="560" height="26" as="geometry" />
        </mxCell>
        <mxCell id="ha1w1WFY_oq6MlDH5Q_z-17" value="+ Funcionario_Excluir(id: int): void" style="text;align=left;verticalAlign=top;spacingLeft=4;spacingRight=4;overflow=hidden;rotatable=0;points=[[0,0.5],[1,0.5]];portConstraint=eastwest;" parent="3AB0t5_sJRTs1TqdBcbe-149" vertex="1">
          <mxGeometry y="232" width="560" height="26" as="geometry" />
        </mxCell>
        <mxCell id="ha1w1WFY_oq6MlDH5Q_z-16" value="+ Funcionario_Atualizar(id: int, nome: str, email: str, fone: str, senha: str): void" style="text;align=left;verticalAlign=top;spacingLeft=4;spacingRight=4;overflow=hidden;rotatable=0;points=[[0,0.5],[1,0.5]];portConstraint=eastwest;" parent="3AB0t5_sJRTs1TqdBcbe-149" vertex="1">
          <mxGeometry y="258" width="560" height="26" as="geometry" />
        </mxCell>
        <mxCell id="ha1w1WFY_oq6MlDH5Q_z-15" value="+ Funcionario_Inserir(nome: str, email: str, fone: str, senha: str, tipo_usuario: int): void" style="text;align=left;verticalAlign=top;spacingLeft=4;spacingRight=4;overflow=hidden;rotatable=0;points=[[0,0.5],[1,0.5]];portConstraint=eastwest;" parent="3AB0t5_sJRTs1TqdBcbe-149" vertex="1">
          <mxGeometry y="284" width="560" height="26" as="geometry" />
        </mxCell>
        <mxCell id="3AB0t5_sJRTs1TqdBcbe-156" value="+ Cliente_Listar(): List&lt;Usuarios&gt;" style="text;align=left;verticalAlign=top;spacingLeft=4;spacingRight=4;overflow=hidden;rotatable=0;points=[[0,0.5],[1,0.5]];portConstraint=eastwest;" parent="3AB0t5_sJRTs1TqdBcbe-149" vertex="1">
          <mxGeometry y="310" width="560" height="26" as="geometry" />
        </mxCell>
        <mxCell id="3AB0t5_sJRTs1TqdBcbe-157" value="+ Genero_Listar(): List&lt;Generos&gt;" style="text;align=left;verticalAlign=top;spacingLeft=4;spacingRight=4;overflow=hidden;rotatable=0;points=[[0,0.5],[1,0.5]];portConstraint=eastwest;" parent="3AB0t5_sJRTs1TqdBcbe-149" vertex="1">
          <mxGeometry y="336" width="560" height="26" as="geometry" />
        </mxCell>
        <mxCell id="3AB0t5_sJRTs1TqdBcbe-158" value="+ Genero_Listar_Id(): List&lt;Generos&gt;" style="text;align=left;verticalAlign=top;spacingLeft=4;spacingRight=4;overflow=hidden;rotatable=0;points=[[0,0.5],[1,0.5]];portConstraint=eastwest;" parent="3AB0t5_sJRTs1TqdBcbe-149" vertex="1">
          <mxGeometry y="362" width="560" height="26" as="geometry" />
        </mxCell>
        <mxCell id="3AB0t5_sJRTs1TqdBcbe-159" value="+ Generos_Inserir(descricao: str): void" style="text;align=left;verticalAlign=top;spacingLeft=4;spacingRight=4;overflow=hidden;rotatable=0;points=[[0,0.5],[1,0.5]];portConstraint=eastwest;" parent="3AB0t5_sJRTs1TqdBcbe-149" vertex="1">
          <mxGeometry y="388" width="560" height="26" as="geometry" />
        </mxCell>
        <mxCell id="3AB0t5_sJRTs1TqdBcbe-160" value="+ Genero_Atualizar(id: int, descricao: str): void" style="text;align=left;verticalAlign=top;spacingLeft=4;spacingRight=4;overflow=hidden;rotatable=0;points=[[0,0.5],[1,0.5]];portConstraint=eastwest;" parent="3AB0t5_sJRTs1TqdBcbe-149" vertex="1">
          <mxGeometry y="414" width="560" height="26" as="geometry" />
        </mxCell>
        <mxCell id="3AB0t5_sJRTs1TqdBcbe-161" value="+ Genero_Excluir(id: int): void" style="text;align=left;verticalAlign=top;spacingLeft=4;spacingRight=4;overflow=hidden;rotatable=0;points=[[0,0.5],[1,0.5]];portConstraint=eastwest;" parent="3AB0t5_sJRTs1TqdBcbe-149" vertex="1">
          <mxGeometry y="440" width="560" height="26" as="geometry" />
        </mxCell>
        <mxCell id="3AB0t5_sJRTs1TqdBcbe-162" value="+ Livro_Listar(): List&lt;Livros&gt;" style="text;align=left;verticalAlign=top;spacingLeft=4;spacingRight=4;overflow=hidden;rotatable=0;points=[[0,0.5],[1,0.5]];portConstraint=eastwest;" parent="3AB0t5_sJRTs1TqdBcbe-149" vertex="1">
          <mxGeometry y="466" width="560" height="26" as="geometry" />
        </mxCell>
        <mxCell id="3AB0t5_sJRTs1TqdBcbe-163" value="+ Livro_Inserir(titulo: str, autor: str, ano: int, id_genero: int): void" style="text;align=left;verticalAlign=top;spacingLeft=4;spacingRight=4;overflow=hidden;rotatable=0;points=[[0,0.5],[1,0.5]];portConstraint=eastwest;" parent="3AB0t5_sJRTs1TqdBcbe-149" vertex="1">
          <mxGeometry y="492" width="560" height="26" as="geometry" />
        </mxCell>
        <mxCell id="3AB0t5_sJRTs1TqdBcbe-164" value="+ Livro_Atualizar(id: int, titulo: str, autor: str, ano: int, id_genero: int): void" style="text;align=left;verticalAlign=top;spacingLeft=4;spacingRight=4;overflow=hidden;rotatable=0;points=[[0,0.5],[1,0.5]];portConstraint=eastwest;" parent="3AB0t5_sJRTs1TqdBcbe-149" vertex="1">
          <mxGeometry y="518" width="560" height="26" as="geometry" />
        </mxCell>
        <mxCell id="3AB0t5_sJRTs1TqdBcbe-165" value="+ Livro_Excluir(id: int): void" style="text;align=left;verticalAlign=top;spacingLeft=4;spacingRight=4;overflow=hidden;rotatable=0;points=[[0,0.5],[1,0.5]];portConstraint=eastwest;" parent="3AB0t5_sJRTs1TqdBcbe-149" vertex="1">
          <mxGeometry y="544" width="560" height="26" as="geometry" />
        </mxCell>
        <mxCell id="3AB0t5_sJRTs1TqdBcbe-167" value="+ Emprestimo_Inserir(data: str, id_exemplar: int, id_cliente: int): void" style="text;align=left;verticalAlign=top;spacingLeft=4;spacingRight=4;overflow=hidden;rotatable=0;points=[[0,0.5],[1,0.5]];portConstraint=eastwest;" parent="3AB0t5_sJRTs1TqdBcbe-149" vertex="1">
          <mxGeometry y="570" width="560" height="26" as="geometry" />
        </mxCell>
        <mxCell id="3AB0t5_sJRTs1TqdBcbe-168" value="+ Emprestimo_Confirmar(id_usuario: int): void" style="text;align=left;verticalAlign=top;spacingLeft=4;spacingRight=4;overflow=hidden;rotatable=0;points=[[0,0.5],[1,0.5]];portConstraint=eastwest;" parent="3AB0t5_sJRTs1TqdBcbe-149" vertex="1">
          <mxGeometry y="596" width="560" height="26" as="geometry" />
        </mxCell>
        <mxCell id="3AB0t5_sJRTs1TqdBcbe-169" value="+ Emprestimo_Listar(): List&lt;Emprestimos&gt;" style="text;align=left;verticalAlign=top;spacingLeft=4;spacingRight=4;overflow=hidden;rotatable=0;points=[[0,0.5],[1,0.5]];portConstraint=eastwest;" parent="3AB0t5_sJRTs1TqdBcbe-149" vertex="1">
          <mxGeometry y="622" width="560" height="26" as="geometry" />
        </mxCell>
        <mxCell id="3AB0t5_sJRTs1TqdBcbe-170" value="+ Emprestimo_Listar_Id(): List&lt;Emprestimos&gt;" style="text;align=left;verticalAlign=top;spacingLeft=4;spacingRight=4;overflow=hidden;rotatable=0;points=[[0,0.5],[1,0.5]];portConstraint=eastwest;" parent="3AB0t5_sJRTs1TqdBcbe-149" vertex="1">
          <mxGeometry y="648" width="560" height="26" as="geometry" />
        </mxCell>
        <mxCell id="3AB0t5_sJRTs1TqdBcbe-172" value="+ Emprestimo_Devolver(id: int): void" style="text;align=left;verticalAlign=top;spacingLeft=4;spacingRight=4;overflow=hidden;rotatable=0;points=[[0,0.5],[1,0.5]];portConstraint=eastwest;" parent="3AB0t5_sJRTs1TqdBcbe-149" vertex="1">
          <mxGeometry y="674" width="560" height="26" as="geometry" />
        </mxCell>
        <mxCell id="3AB0t5_sJRTs1TqdBcbe-173" value="+ Exemplar_Listar(): List&lt;Exemplares&gt;" style="text;align=left;verticalAlign=top;spacingLeft=4;spacingRight=4;overflow=hidden;rotatable=0;points=[[0,0.5],[1,0.5]];portConstraint=eastwest;" parent="3AB0t5_sJRTs1TqdBcbe-149" vertex="1">
          <mxGeometry y="700" width="560" height="26" as="geometry" />
        </mxCell>
        <mxCell id="3AB0t5_sJRTs1TqdBcbe-174" value="+ Exemplar_Listar_Id(): List&lt;Exemplares&gt;" style="text;align=left;verticalAlign=top;spacingLeft=4;spacingRight=4;overflow=hidden;rotatable=0;points=[[0,0.5],[1,0.5]];portConstraint=eastwest;" parent="3AB0t5_sJRTs1TqdBcbe-149" vertex="1">
          <mxGeometry y="726" width="560" height="26" as="geometry" />
        </mxCell>
        <mxCell id="3AB0t5_sJRTs1TqdBcbe-175" value="+ Exemplar_Inserir(edicao: int, editora: str, id_livro: int, id_genero: int): void" style="text;align=left;verticalAlign=top;spacingLeft=4;spacingRight=4;overflow=hidden;rotatable=0;points=[[0,0.5],[1,0.5]];portConstraint=eastwest;" parent="3AB0t5_sJRTs1TqdBcbe-149" vertex="1">
          <mxGeometry y="752" width="560" height="26" as="geometry" />
        </mxCell>
        <mxCell id="3AB0t5_sJRTs1TqdBcbe-176" value="+ Exemplar_Atualizar(id: int, edicao: int, editora: str, id_livro: int, id_genero: int): void" style="text;align=left;verticalAlign=top;spacingLeft=4;spacingRight=4;overflow=hidden;rotatable=0;points=[[0,0.5],[1,0.5]];portConstraint=eastwest;" parent="3AB0t5_sJRTs1TqdBcbe-149" vertex="1">
          <mxGeometry y="778" width="560" height="26" as="geometry" />
        </mxCell>
        <mxCell id="3AB0t5_sJRTs1TqdBcbe-177" value="+ Exemplar_Excluir(id: int): void" style="text;align=left;verticalAlign=top;spacingLeft=4;spacingRight=4;overflow=hidden;rotatable=0;points=[[0,0.5],[1,0.5]];portConstraint=eastwest;" parent="3AB0t5_sJRTs1TqdBcbe-149" vertex="1">
          <mxGeometry y="804" width="560" height="26" as="geometry" />
        </mxCell>
        <mxCell id="3AB0t5_sJRTs1TqdBcbe-178" value="Models&lt;div&gt;&lt;br&gt;&lt;/div&gt;&lt;div&gt;&lt;br&gt;&lt;/div&gt;&lt;div&gt;&lt;br&gt;&lt;/div&gt;&lt;div&gt;&lt;br&gt;&lt;/div&gt;&lt;div&gt;&lt;br&gt;&lt;/div&gt;&lt;div&gt;&lt;br&gt;&lt;/div&gt;&lt;div&gt;&lt;br&gt;&lt;/div&gt;&lt;div&gt;&lt;br&gt;&lt;/div&gt;&lt;div&gt;&lt;br&gt;&lt;/div&gt;&lt;div&gt;&lt;br&gt;&lt;/div&gt;&lt;div&gt;&lt;br&gt;&lt;/div&gt;&lt;div&gt;&lt;br&gt;&lt;/div&gt;&lt;div&gt;&lt;br&gt;&lt;/div&gt;&lt;div&gt;&lt;br&gt;&lt;/div&gt;&lt;div&gt;&lt;br&gt;&lt;/div&gt;&lt;div&gt;&lt;br&gt;&lt;/div&gt;&lt;div&gt;&lt;br&gt;&lt;/div&gt;&lt;div&gt;&lt;br&gt;&lt;/div&gt;&lt;div&gt;&lt;br&gt;&lt;/div&gt;&lt;div&gt;&lt;br&gt;&lt;/div&gt;&lt;div&gt;&lt;br&gt;&lt;/div&gt;&lt;div&gt;&lt;br&gt;&lt;/div&gt;&lt;div&gt;&lt;br&gt;&lt;/div&gt;&lt;div&gt;&lt;br&gt;&lt;div&gt;&lt;br&gt;&lt;/div&gt;&lt;div&gt;&lt;br&gt;&lt;/div&gt;&lt;div&gt;&lt;br&gt;&lt;/div&gt;&lt;div&gt;&lt;br&gt;&lt;/div&gt;&lt;div&gt;&lt;br&gt;&lt;/div&gt;&lt;/div&gt;" style="shape=folder;fontStyle=1;spacingTop=10;tabWidth=40;tabHeight=14;tabPosition=left;html=1;whiteSpace=wrap;" parent="1" vertex="1">
          <mxGeometry x="1024" y="1339" width="550" height="490" as="geometry" />
        </mxCell>
        <mxCell id="3AB0t5_sJRTs1TqdBcbe-179" value="&lt;b&gt;Usuário&lt;/b&gt;" style="html=1;whiteSpace=wrap;" parent="1" vertex="1">
          <mxGeometry x="1064" y="1398" width="110" height="50" as="geometry" />
        </mxCell>
        <mxCell id="3AB0t5_sJRTs1TqdBcbe-180" style="edgeStyle=orthogonalEdgeStyle;rounded=0;orthogonalLoop=1;jettySize=auto;html=1;exitX=0.5;exitY=1;exitDx=0;exitDy=0;endArrow=baseDash;endFill=0;" parent="1" source="3AB0t5_sJRTs1TqdBcbe-181" target="3AB0t5_sJRTs1TqdBcbe-183" edge="1">
          <mxGeometry relative="1" as="geometry" />
        </mxCell>
        <mxCell id="3AB0t5_sJRTs1TqdBcbe-181" value="&lt;b&gt;Gênero&lt;/b&gt;" style="html=1;whiteSpace=wrap;" parent="1" vertex="1">
          <mxGeometry x="1424" y="1398" width="110" height="50" as="geometry" />
        </mxCell>
        <mxCell id="3AB0t5_sJRTs1TqdBcbe-182" style="edgeStyle=orthogonalEdgeStyle;rounded=0;orthogonalLoop=1;jettySize=auto;html=1;exitX=0;exitY=0.5;exitDx=0;exitDy=0;endArrow=baseDash;endFill=0;" parent="1" source="3AB0t5_sJRTs1TqdBcbe-183" target="3AB0t5_sJRTs1TqdBcbe-185" edge="1">
          <mxGeometry relative="1" as="geometry" />
        </mxCell>
        <mxCell id="3AB0t5_sJRTs1TqdBcbe-183" value="&lt;b&gt;Livro&lt;/b&gt;" style="html=1;whiteSpace=wrap;" parent="1" vertex="1">
          <mxGeometry x="1424" y="1494" width="110" height="50" as="geometry" />
        </mxCell>
        <mxCell id="3AB0t5_sJRTs1TqdBcbe-184" style="edgeStyle=orthogonalEdgeStyle;rounded=0;orthogonalLoop=1;jettySize=auto;html=1;exitX=0;exitY=0.5;exitDx=0;exitDy=0;entryX=1;entryY=0.5;entryDx=0;entryDy=0;endArrow=none;endFill=1;startFill=0;" parent="1" source="3AB0t5_sJRTs1TqdBcbe-185" target="3AB0t5_sJRTs1TqdBcbe-187" edge="1">
          <mxGeometry relative="1" as="geometry" />
        </mxCell>
        <mxCell id="3AB0t5_sJRTs1TqdBcbe-185" value="&lt;b&gt;Exemplar&lt;/b&gt;" style="html=1;whiteSpace=wrap;" parent="1" vertex="1">
          <mxGeometry x="1244" y="1494" width="110" height="50" as="geometry" />
        </mxCell>
        <mxCell id="3AB0t5_sJRTs1TqdBcbe-186" style="edgeStyle=orthogonalEdgeStyle;rounded=0;orthogonalLoop=1;jettySize=auto;html=1;exitX=0.5;exitY=0;exitDx=0;exitDy=0;entryX=0.5;entryY=1;entryDx=0;entryDy=0;endArrow=baseDash;endFill=0;" parent="1" source="3AB0t5_sJRTs1TqdBcbe-187" target="3AB0t5_sJRTs1TqdBcbe-179" edge="1">
          <mxGeometry relative="1" as="geometry" />
        </mxCell>
        <mxCell id="3AB0t5_sJRTs1TqdBcbe-187" value="&lt;b&gt;Empréstimo&lt;/b&gt;" style="html=1;whiteSpace=wrap;" parent="1" vertex="1">
          <mxGeometry x="1064" y="1494" width="110" height="50" as="geometry" />
        </mxCell>
        <mxCell id="3AB0t5_sJRTs1TqdBcbe-188" value="1" style="text;html=1;align=center;verticalAlign=middle;whiteSpace=wrap;rounded=0;" parent="1" vertex="1">
          <mxGeometry x="1454" y="1449" width="21" height="14" as="geometry" />
        </mxCell>
        <mxCell id="3AB0t5_sJRTs1TqdBcbe-189" value="*" style="text;html=1;align=center;verticalAlign=middle;whiteSpace=wrap;rounded=0;" parent="1" vertex="1">
          <mxGeometry x="1454" y="1484" width="21" height="14" as="geometry" />
        </mxCell>
        <mxCell id="3AB0t5_sJRTs1TqdBcbe-190" value="1" style="text;html=1;align=center;verticalAlign=middle;whiteSpace=wrap;rounded=0;" parent="1" vertex="1">
          <mxGeometry x="1403" y="1504" width="21" height="14" as="geometry" />
        </mxCell>
        <mxCell id="3AB0t5_sJRTs1TqdBcbe-191" value="*" style="text;html=1;align=center;verticalAlign=middle;whiteSpace=wrap;rounded=0;" parent="1" vertex="1">
          <mxGeometry x="1354" y="1508" width="21" height="14" as="geometry" />
        </mxCell>
        <mxCell id="3AB0t5_sJRTs1TqdBcbe-192" value="*" style="text;html=1;align=center;verticalAlign=middle;whiteSpace=wrap;rounded=0;" parent="1" vertex="1">
          <mxGeometry x="1174" y="1508" width="21" height="14" as="geometry" />
        </mxCell>
        <mxCell id="3AB0t5_sJRTs1TqdBcbe-193" value="*" style="text;html=1;align=center;verticalAlign=middle;whiteSpace=wrap;rounded=0;" parent="1" vertex="1">
          <mxGeometry x="1122" y="1484" width="21" height="14" as="geometry" />
        </mxCell>
        <mxCell id="3AB0t5_sJRTs1TqdBcbe-194" value="1" style="text;html=1;align=center;verticalAlign=middle;whiteSpace=wrap;rounded=0;" parent="1" vertex="1">
          <mxGeometry x="1223" y="1504" width="21" height="14" as="geometry" />
        </mxCell>
        <mxCell id="3AB0t5_sJRTs1TqdBcbe-195" value="1" style="text;html=1;align=center;verticalAlign=middle;whiteSpace=wrap;rounded=0;" parent="1" vertex="1">
          <mxGeometry x="1122" y="1449" width="21" height="14" as="geometry" />
        </mxCell>
        <mxCell id="3AB0t5_sJRTs1TqdBcbe-196" value="&amp;lt;&amp;lt;static&amp;gt;&amp;gt;&lt;br&gt;&lt;b&gt;Clientes&lt;/b&gt;" style="html=1;whiteSpace=wrap;" parent="1" vertex="1">
          <mxGeometry x="1064" y="1619" width="110" height="50" as="geometry" />
        </mxCell>
        <mxCell id="st0J9N4TLg85rTO5cKsw-125" style="edgeStyle=orthogonalEdgeStyle;rounded=0;orthogonalLoop=1;jettySize=auto;html=1;exitX=1;exitY=0.5;exitDx=0;exitDy=0;entryX=0;entryY=0.5;entryDx=0;entryDy=0;endArrow=block;endFill=0;" parent="1" source="3AB0t5_sJRTs1TqdBcbe-197" target="st0J9N4TLg85rTO5cKsw-123" edge="1">
          <mxGeometry relative="1" as="geometry" />
        </mxCell>
        <mxCell id="3AB0t5_sJRTs1TqdBcbe-197" value="&amp;lt;&amp;lt;static&amp;gt;&amp;gt;&lt;br&gt;&lt;b&gt;Usuários&lt;/b&gt;" style="html=1;whiteSpace=wrap;" parent="1" vertex="1">
          <mxGeometry x="1064" y="1619" width="110" height="50" as="geometry" />
        </mxCell>
        <mxCell id="3AB0t5_sJRTs1TqdBcbe-198" value="&amp;lt;&amp;lt;static&amp;gt;&amp;gt;&lt;br&gt;&lt;b&gt;Empréstimos&lt;/b&gt;" style="html=1;whiteSpace=wrap;" parent="1" vertex="1">
          <mxGeometry x="1064" y="1689" width="110" height="50" as="geometry" />
        </mxCell>
        <mxCell id="st0J9N4TLg85rTO5cKsw-126" style="edgeStyle=orthogonalEdgeStyle;rounded=0;orthogonalLoop=1;jettySize=auto;html=1;exitX=0.5;exitY=0;exitDx=0;exitDy=0;entryX=0.5;entryY=1;entryDx=0;entryDy=0;endArrow=block;endFill=0;" parent="1" source="3AB0t5_sJRTs1TqdBcbe-199" target="st0J9N4TLg85rTO5cKsw-123" edge="1">
          <mxGeometry relative="1" as="geometry" />
        </mxCell>
        <mxCell id="3AB0t5_sJRTs1TqdBcbe-199" value="&amp;lt;&amp;lt;static&amp;gt;&amp;gt;&lt;br&gt;&lt;b&gt;Exemplares&lt;/b&gt;" style="html=1;whiteSpace=wrap;" parent="1" vertex="1">
          <mxGeometry x="1244" y="1739" width="110" height="50" as="geometry" />
        </mxCell>
        <mxCell id="3AB0t5_sJRTs1TqdBcbe-200" value="&amp;lt;&amp;lt;static&amp;gt;&amp;gt;&lt;br&gt;&lt;b&gt;Livros&lt;/b&gt;" style="html=1;whiteSpace=wrap;" parent="1" vertex="1">
          <mxGeometry x="1424" y="1689" width="110" height="50" as="geometry" />
        </mxCell>
        <mxCell id="st0J9N4TLg85rTO5cKsw-127" style="edgeStyle=orthogonalEdgeStyle;rounded=0;orthogonalLoop=1;jettySize=auto;html=1;exitX=0;exitY=0.5;exitDx=0;exitDy=0;endArrow=block;endFill=0;" parent="1" source="3AB0t5_sJRTs1TqdBcbe-201" target="st0J9N4TLg85rTO5cKsw-123" edge="1">
          <mxGeometry relative="1" as="geometry" />
        </mxCell>
        <mxCell id="3AB0t5_sJRTs1TqdBcbe-201" value="&amp;lt;&amp;lt;static&amp;gt;&amp;gt;&lt;br&gt;&lt;b&gt;Gêneros&lt;/b&gt;" style="html=1;whiteSpace=wrap;" parent="1" vertex="1">
          <mxGeometry x="1424" y="1619" width="110" height="50" as="geometry" />
        </mxCell>
        <mxCell id="3AB0t5_sJRTs1TqdBcbe-202" value="View&lt;br&gt;&lt;div&gt;&lt;br&gt;&lt;/div&gt;&lt;div&gt;&lt;br&gt;&lt;div&gt;&lt;br&gt;&lt;/div&gt;&lt;div&gt;&lt;br&gt;&lt;/div&gt;&lt;div&gt;&lt;br&gt;&lt;/div&gt;&lt;div&gt;&lt;br&gt;&lt;/div&gt;&lt;div&gt;&lt;br&gt;&lt;/div&gt;&lt;/div&gt;" style="shape=folder;fontStyle=1;spacingTop=10;tabWidth=40;tabHeight=14;tabPosition=left;html=1;whiteSpace=wrap;" parent="1" vertex="1">
          <mxGeometry x="773" y="1455" width="160" height="160" as="geometry" />
        </mxCell>
        <mxCell id="3AB0t5_sJRTs1TqdBcbe-203" value="&amp;lt;&amp;lt;static&amp;gt;&amp;gt;&lt;br&gt;&lt;b&gt;View Python&lt;/b&gt;" style="html=1;whiteSpace=wrap;" parent="1" vertex="1">
          <mxGeometry x="798" y="1521" width="110" height="50" as="geometry" />
        </mxCell>
        <mxCell id="3AB0t5_sJRTs1TqdBcbe-204" style="edgeStyle=orthogonalEdgeStyle;rounded=0;orthogonalLoop=1;jettySize=auto;html=1;exitX=0;exitY=0;exitDx=160;exitDy=87;exitPerimeter=0;entryX=0;entryY=0;entryDx=0;entryDy=202;entryPerimeter=0;endArrow=open;endFill=0;dashed=1;" parent="1" source="3AB0t5_sJRTs1TqdBcbe-202" target="3AB0t5_sJRTs1TqdBcbe-178" edge="1">
          <mxGeometry relative="1" as="geometry" />
        </mxCell>
        <mxCell id="3AB0t5_sJRTs1TqdBcbe-205" value="Tamplates&lt;div&gt;&lt;br&gt;&lt;div&gt;&lt;br&gt;&lt;/div&gt;&lt;div&gt;&lt;br&gt;&lt;/div&gt;&lt;div&gt;&lt;br&gt;&lt;/div&gt;&lt;div&gt;&lt;br&gt;&lt;/div&gt;&lt;div&gt;&lt;br&gt;&lt;/div&gt;&lt;div&gt;&lt;br&gt;&lt;/div&gt;&lt;div&gt;&lt;br&gt;&lt;/div&gt;&lt;div&gt;&lt;br&gt;&lt;/div&gt;&lt;div&gt;&lt;br&gt;&lt;/div&gt;&lt;div&gt;&lt;br&gt;&lt;/div&gt;&lt;div&gt;&lt;br&gt;&lt;/div&gt;&lt;div&gt;&lt;div&gt;&lt;br&gt;&lt;/div&gt;&lt;div&gt;&lt;br&gt;&lt;/div&gt;&lt;div&gt;&lt;br&gt;&lt;/div&gt;&lt;div&gt;&lt;br&gt;&lt;/div&gt;&lt;div&gt;&lt;br&gt;&lt;/div&gt;&lt;div&gt;&lt;br&gt;&lt;/div&gt;&lt;div&gt;&lt;br&gt;&lt;/div&gt;&lt;div&gt;&lt;br&gt;&lt;/div&gt;&lt;div&gt;&lt;br&gt;&lt;/div&gt;&lt;div&gt;&lt;br&gt;&lt;/div&gt;&lt;div&gt;&lt;br&gt;&lt;/div&gt;&lt;div&gt;&lt;br&gt;&lt;/div&gt;&lt;div&gt;&lt;br&gt;&lt;/div&gt;&lt;div&gt;&lt;br&gt;&lt;/div&gt;&lt;div&gt;&lt;br&gt;&lt;/div&gt;&lt;div&gt;&lt;br&gt;&lt;/div&gt;&lt;div&gt;&lt;br&gt;&lt;/div&gt;&lt;div&gt;&lt;br&gt;&lt;div&gt;&lt;br&gt;&lt;/div&gt;&lt;div&gt;&lt;br&gt;&lt;/div&gt;&lt;div&gt;&lt;br&gt;&lt;/div&gt;&lt;div&gt;&lt;br&gt;&lt;/div&gt;&lt;div&gt;&lt;br&gt;&lt;/div&gt;&lt;/div&gt;&lt;/div&gt;&lt;/div&gt;" style="shape=folder;fontStyle=1;spacingTop=10;tabWidth=40;tabHeight=14;tabPosition=left;html=1;whiteSpace=wrap;" parent="1" vertex="1">
          <mxGeometry x="70" y="1348" width="630" height="562" as="geometry" />
        </mxCell>
        <mxCell id="3AB0t5_sJRTs1TqdBcbe-206" style="edgeStyle=orthogonalEdgeStyle;rounded=0;orthogonalLoop=1;jettySize=auto;html=1;exitX=0;exitY=0;exitDx=550;exitDy=202;exitPerimeter=0;entryX=0;entryY=0.591;entryDx=0;entryDy=0;entryPerimeter=0;endArrow=open;endFill=0;dashed=1;" parent="1" source="3AB0t5_sJRTs1TqdBcbe-205" target="3AB0t5_sJRTs1TqdBcbe-202" edge="1">
          <mxGeometry relative="1" as="geometry" />
        </mxCell>
        <mxCell id="3AB0t5_sJRTs1TqdBcbe-215" style="edgeStyle=orthogonalEdgeStyle;rounded=0;orthogonalLoop=1;jettySize=auto;html=1;exitX=1;exitY=0;exitDx=0;exitDy=0;entryX=0.5;entryY=1;entryDx=0;entryDy=0;dashed=1;endArrow=open;endFill=0;" parent="1" source="3AB0t5_sJRTs1TqdBcbe-224" target="3AB0t5_sJRTs1TqdBcbe-227" edge="1">
          <mxGeometry relative="1" as="geometry">
            <Array as="points">
              <mxPoint x="250" y="1600" />
              <mxPoint x="500" y="1600" />
              <mxPoint x="500" y="1570" />
              <mxPoint x="620" y="1570" />
            </Array>
          </mxGeometry>
        </mxCell>
        <mxCell id="3AB0t5_sJRTs1TqdBcbe-216" style="edgeStyle=orthogonalEdgeStyle;rounded=0;orthogonalLoop=1;jettySize=auto;html=1;exitX=0.5;exitY=0;exitDx=0;exitDy=0;entryX=0.5;entryY=1;entryDx=0;entryDy=0;endArrow=open;endFill=0;dashed=1;" parent="1" source="3AB0t5_sJRTs1TqdBcbe-224" target="3AB0t5_sJRTs1TqdBcbe-226" edge="1">
          <mxGeometry relative="1" as="geometry">
            <Array as="points">
              <mxPoint x="228" y="1570" />
              <mxPoint x="408" y="1570" />
            </Array>
          </mxGeometry>
        </mxCell>
        <mxCell id="3AB0t5_sJRTs1TqdBcbe-217" style="edgeStyle=orthogonalEdgeStyle;rounded=0;orthogonalLoop=1;jettySize=auto;html=1;exitX=0.239;exitY=0.008;exitDx=0;exitDy=0;endArrow=open;endFill=0;dashed=1;exitPerimeter=0;" parent="1" source="3AB0t5_sJRTs1TqdBcbe-224" target="3AB0t5_sJRTs1TqdBcbe-225" edge="1">
          <mxGeometry relative="1" as="geometry">
            <Array as="points">
              <mxPoint x="115" y="1620" />
              <mxPoint x="116" y="1620" />
            </Array>
          </mxGeometry>
        </mxCell>
        <mxCell id="3AB0t5_sJRTs1TqdBcbe-218" style="edgeStyle=orthogonalEdgeStyle;rounded=0;orthogonalLoop=1;jettySize=auto;html=1;exitX=1;exitY=0.25;exitDx=0;exitDy=0;entryX=0;entryY=0.5;entryDx=0;entryDy=0;dashed=1;endArrow=open;endFill=0;" parent="1" source="3AB0t5_sJRTs1TqdBcbe-224" target="3AB0t5_sJRTs1TqdBcbe-228" edge="1">
          <mxGeometry relative="1" as="geometry">
            <Array as="points">
              <mxPoint x="470" y="1661" />
              <mxPoint x="470" y="1624" />
            </Array>
          </mxGeometry>
        </mxCell>
        <mxCell id="3AB0t5_sJRTs1TqdBcbe-219" style="edgeStyle=orthogonalEdgeStyle;rounded=0;orthogonalLoop=1;jettySize=auto;html=1;exitX=1;exitY=0.5;exitDx=0;exitDy=0;entryX=0;entryY=0.5;entryDx=0;entryDy=0;dashed=1;endArrow=open;endFill=0;" parent="1" source="3AB0t5_sJRTs1TqdBcbe-224" target="3AB0t5_sJRTs1TqdBcbe-229" edge="1">
          <mxGeometry relative="1" as="geometry">
            <Array as="points">
              <mxPoint x="470" y="1703" />
              <mxPoint x="470" y="1735" />
            </Array>
          </mxGeometry>
        </mxCell>
        <mxCell id="3AB0t5_sJRTs1TqdBcbe-220" style="edgeStyle=orthogonalEdgeStyle;rounded=0;orthogonalLoop=1;jettySize=auto;html=1;exitX=1;exitY=0.75;exitDx=0;exitDy=0;entryX=0;entryY=0.5;entryDx=0;entryDy=0;dashed=1;endArrow=open;endFill=0;" parent="1" source="3AB0t5_sJRTs1TqdBcbe-224" target="3AB0t5_sJRTs1TqdBcbe-230" edge="1">
          <mxGeometry relative="1" as="geometry">
            <Array as="points">
              <mxPoint x="430" y="1744" />
              <mxPoint x="430" y="1845" />
            </Array>
          </mxGeometry>
        </mxCell>
        <mxCell id="SJzPHD_1Gn2At19BkOxS-31" style="edgeStyle=orthogonalEdgeStyle;rounded=0;orthogonalLoop=1;jettySize=auto;html=1;exitX=0.75;exitY=0;exitDx=0;exitDy=0;entryX=0.5;entryY=1;entryDx=0;entryDy=0;dashed=1;endArrow=open;endFill=0;" parent="1" source="3AB0t5_sJRTs1TqdBcbe-224" target="SJzPHD_1Gn2At19BkOxS-30" edge="1">
          <mxGeometry relative="1" as="geometry">
            <Array as="points">
              <mxPoint x="197" y="1580" />
              <mxPoint x="460" y="1580" />
            </Array>
          </mxGeometry>
        </mxCell>
        <mxCell id="3AB0t5_sJRTs1TqdBcbe-224" value="&lt;p style=&quot;margin:0px;margin-top:4px;text-align:center;&quot;&gt;&lt;font&gt;&lt;i style=&quot;&quot;&gt;&amp;lt;&amp;lt;static&amp;gt;&amp;gt;&lt;/i&gt;&lt;br&gt;&lt;b style=&quot;&quot;&gt;IndexUI&lt;/b&gt;&lt;/font&gt;&lt;/p&gt;&lt;hr size=&quot;1&quot; style=&quot;border-style:solid;&quot;&gt;&lt;p style=&quot;margin:0px;margin-left:4px;&quot;&gt;&lt;font&gt;&lt;br&gt;&lt;/font&gt;&lt;/p&gt;&lt;hr size=&quot;1&quot; style=&quot;border-style:solid;&quot;&gt;&lt;p style=&quot;margin:0px;margin-left:4px;&quot;&gt;&lt;span style=&quot;text-wrap-mode: nowrap;&quot;&gt;&lt;font&gt;+ Menu_Admin(): void&lt;/font&gt;&lt;/span&gt;&lt;/p&gt;&lt;p style=&quot;margin:0px;margin-left:4px;&quot;&gt;&lt;font&gt;&lt;span style=&quot;text-wrap-mode: nowrap;&quot;&gt;+ Menu_Funcionario(): void&lt;/span&gt;&lt;span style=&quot;text-wrap-mode: nowrap;&quot;&gt;&lt;/span&gt;&lt;/font&gt;&lt;/p&gt;&lt;p style=&quot;margin:0px;margin-left:4px;&quot;&gt;&lt;font&gt;&lt;span style=&quot;text-wrap-mode: nowrap;&quot;&gt;+ Menu_Visitante(): void&lt;/span&gt;&lt;span style=&quot;text-wrap-mode: nowrap;&quot;&gt;&lt;/span&gt;&lt;/font&gt;&lt;/p&gt;&lt;p style=&quot;margin:0px;margin-left:4px;&quot;&gt;&lt;font&gt;&lt;span style=&quot;text-wrap-mode: nowrap;&quot;&gt;+ Sair_do_Sitema(): void&lt;/span&gt;&lt;span style=&quot;text-wrap-mode: nowrap;&quot;&gt;&lt;/span&gt;&lt;/font&gt;&lt;/p&gt;&lt;p style=&quot;margin:0px;margin-left:4px;&quot;&gt;&lt;font&gt;&lt;span style=&quot;text-wrap-mode: nowrap;&quot;&gt;+ Sidebar(): void&lt;/span&gt;&lt;span style=&quot;text-wrap-mode: nowrap;&quot;&gt;&lt;/span&gt;&lt;/font&gt;&lt;/p&gt;&lt;p style=&quot;margin:0px;margin-left:4px;&quot;&gt;&lt;span style=&quot;text-wrap-mode: nowrap;&quot;&gt;&lt;font&gt;+ Main(): void&lt;/font&gt;&lt;/span&gt;&lt;span style=&quot;text-wrap-mode: nowrap;&quot;&gt;&lt;/span&gt;&lt;/p&gt;" style="verticalAlign=top;align=left;overflow=fill;html=1;whiteSpace=wrap;fillColor=#d5e8d4;strokeColor=#82b366;" parent="1" vertex="1">
          <mxGeometry x="77" y="1600" width="160" height="165" as="geometry" />
        </mxCell>
        <mxCell id="3AB0t5_sJRTs1TqdBcbe-225" value="&lt;p style=&quot;margin:0px;margin-top:4px;text-align:center;&quot;&gt;&lt;i&gt;&amp;lt;&amp;lt;static&amp;gt;&amp;gt;&lt;/i&gt;&lt;br&gt;&lt;b&gt;ManterUsuarioUI&lt;/b&gt;&lt;/p&gt;&lt;hr size=&quot;1&quot; style=&quot;border-style:solid;&quot;&gt;&lt;p style=&quot;margin:0px;margin-left:4px;&quot;&gt;&lt;br&gt;&lt;/p&gt;&lt;hr size=&quot;1&quot; style=&quot;border-style:solid;&quot;&gt;&lt;p style=&quot;margin:0px;margin-left:4px;&quot;&gt;&lt;span style=&quot;text-wrap-mode: nowrap; background-color: initial;&quot;&gt;+ Main(): void&lt;/span&gt;&lt;/p&gt;&lt;p style=&quot;margin:0px;margin-left:4px;&quot;&gt;&lt;span style=&quot;text-wrap-mode: nowrap; background-color: initial;&quot;&gt;+ Usuario_Listar(): list&lt;/span&gt;&lt;/p&gt;&lt;p style=&quot;margin:0px;margin-left:4px;&quot;&gt;&lt;span style=&quot;text-wrap-mode: nowrap; background-color: initial;&quot;&gt;+&amp;nbsp;&lt;/span&gt;&lt;span style=&quot;text-wrap-mode: nowrap;&quot;&gt;Usuario&lt;/span&gt;&lt;span style=&quot;text-wrap-mode: nowrap; background-color: initial;&quot;&gt;_Inserir(): void&lt;/span&gt;&lt;/p&gt;&lt;p style=&quot;margin:0px;margin-left:4px;&quot;&gt;&lt;span style=&quot;text-wrap-mode: nowrap; background-color: initial;&quot;&gt;+&amp;nbsp;&lt;/span&gt;&lt;span style=&quot;text-wrap-mode: nowrap;&quot;&gt;Usuario&lt;/span&gt;&lt;span style=&quot;text-wrap-mode: nowrap; background-color: initial;&quot;&gt;_Atualizar(): void&lt;/span&gt;&lt;/p&gt;&lt;p style=&quot;margin:0px;margin-left:4px;&quot;&gt;&lt;span style=&quot;text-wrap-mode: nowrap; background-color: initial;&quot;&gt;+&amp;nbsp;&lt;/span&gt;&lt;span style=&quot;text-wrap-mode: nowrap;&quot;&gt;Usuario&lt;/span&gt;&lt;span style=&quot;text-wrap-mode: nowrap; background-color: initial;&quot;&gt;_Exlcuir(): void&lt;/span&gt;&lt;/p&gt;" style="verticalAlign=top;align=left;overflow=fill;html=1;whiteSpace=wrap;fillColor=#d5e8d4;strokeColor=#82b366;" parent="1" vertex="1">
          <mxGeometry x="77" y="1400" width="150" height="150" as="geometry" />
        </mxCell>
        <mxCell id="3AB0t5_sJRTs1TqdBcbe-226" value="&lt;p style=&quot;margin:0px;margin-top:4px;text-align:center;&quot;&gt;&lt;i&gt;&amp;lt;&amp;lt;static&amp;gt;&amp;gt;&lt;/i&gt;&lt;br&gt;&lt;b&gt;ManterLivroUI&lt;/b&gt;&lt;/p&gt;&lt;hr size=&quot;1&quot; style=&quot;border-style:solid;&quot;&gt;&lt;p style=&quot;margin:0px;margin-left:4px;&quot;&gt;&lt;br&gt;&lt;/p&gt;&lt;hr size=&quot;1&quot; style=&quot;border-style:solid;&quot;&gt;&lt;p style=&quot;margin: 0px 0px 0px 4px;&quot;&gt;&lt;span style=&quot;text-wrap-mode: nowrap; background-color: initial;&quot;&gt;+ Main(): void&lt;/span&gt;&lt;/p&gt;&lt;p style=&quot;margin: 0px 0px 0px 4px;&quot;&gt;&lt;span style=&quot;text-wrap-mode: nowrap; background-color: initial;&quot;&gt;+ Livro_Listar(): list&lt;/span&gt;&lt;/p&gt;&lt;p style=&quot;margin: 0px 0px 0px 4px;&quot;&gt;&lt;span style=&quot;text-wrap-mode: nowrap; background-color: initial;&quot;&gt;+&amp;nbsp;&lt;/span&gt;&lt;span style=&quot;text-wrap-mode: nowrap;&quot;&gt;Livro&lt;/span&gt;&lt;span style=&quot;text-wrap-mode: nowrap; background-color: initial;&quot;&gt;_Inserir(): void&lt;/span&gt;&lt;/p&gt;&lt;p style=&quot;margin: 0px 0px 0px 4px;&quot;&gt;&lt;span style=&quot;text-wrap-mode: nowrap; background-color: initial;&quot;&gt;+&amp;nbsp;&lt;/span&gt;&lt;span style=&quot;text-wrap-mode: nowrap;&quot;&gt;Livro&lt;/span&gt;&lt;span style=&quot;text-wrap-mode: nowrap; background-color: initial;&quot;&gt;_Atualizar(): void&lt;/span&gt;&lt;/p&gt;&lt;p style=&quot;margin: 0px 0px 0px 4px;&quot;&gt;&lt;span style=&quot;text-wrap-mode: nowrap; background-color: initial;&quot;&gt;+&amp;nbsp;&lt;/span&gt;&lt;span style=&quot;text-wrap-mode: nowrap;&quot;&gt;Livro&lt;/span&gt;&lt;span style=&quot;text-wrap-mode: nowrap; background-color: initial;&quot;&gt;_Excluir(): void&lt;/span&gt;&lt;/p&gt;" style="verticalAlign=top;align=left;overflow=fill;html=1;whiteSpace=wrap;fillColor=#d5e8d4;strokeColor=#82b366;" parent="1" vertex="1">
          <mxGeometry x="233" y="1400" width="140" height="150" as="geometry" />
        </mxCell>
        <mxCell id="3AB0t5_sJRTs1TqdBcbe-227" value="&lt;p style=&quot;margin:0px;margin-top:4px;text-align:center;&quot;&gt;&lt;i&gt;&amp;lt;&amp;lt;static&amp;gt;&amp;gt;&lt;/i&gt;&lt;br&gt;&lt;b&gt;ManterGeneroUI&lt;/b&gt;&lt;/p&gt;&lt;hr size=&quot;1&quot; style=&quot;border-style:solid;&quot;&gt;&lt;p style=&quot;margin:0px;margin-left:4px;&quot;&gt;&lt;br&gt;&lt;/p&gt;&lt;hr size=&quot;1&quot; style=&quot;border-style:solid;&quot;&gt;&lt;p style=&quot;margin: 0px 0px 0px 4px;&quot;&gt;&lt;span style=&quot;text-wrap-mode: nowrap; background-color: initial;&quot;&gt;+ Main(): void&lt;/span&gt;&lt;/p&gt;&lt;p style=&quot;margin: 0px 0px 0px 4px;&quot;&gt;&lt;span style=&quot;text-wrap-mode: nowrap; background-color: initial;&quot;&gt;+ Genero_Listar(): list&lt;/span&gt;&lt;/p&gt;&lt;p style=&quot;margin: 0px 0px 0px 4px;&quot;&gt;&lt;span style=&quot;text-wrap-mode: nowrap; background-color: initial;&quot;&gt;+&amp;nbsp;&lt;/span&gt;&lt;span style=&quot;text-wrap-mode: nowrap;&quot;&gt;Genero&lt;/span&gt;&lt;span style=&quot;text-wrap-mode: nowrap; background-color: initial;&quot;&gt;_Inserir(): void&lt;/span&gt;&lt;/p&gt;&lt;p style=&quot;margin: 0px 0px 0px 4px;&quot;&gt;&lt;span style=&quot;text-wrap-mode: nowrap; background-color: initial;&quot;&gt;+&amp;nbsp;&lt;/span&gt;&lt;span style=&quot;text-wrap-mode: nowrap;&quot;&gt;Genero&lt;/span&gt;&lt;span style=&quot;text-wrap-mode: nowrap; background-color: initial;&quot;&gt;_Atualizar(): void&lt;/span&gt;&lt;/p&gt;&lt;p style=&quot;margin: 0px 0px 0px 4px;&quot;&gt;&lt;span style=&quot;text-wrap-mode: nowrap; background-color: initial;&quot;&gt;+&amp;nbsp;&lt;/span&gt;&lt;span style=&quot;text-wrap-mode: nowrap;&quot;&gt;Genero&lt;/span&gt;&lt;span style=&quot;text-wrap-mode: nowrap; background-color: initial;&quot;&gt;_Excluir(): void&lt;/span&gt;&lt;/p&gt;" style="verticalAlign=top;align=left;overflow=fill;html=1;whiteSpace=wrap;fillColor=#d5e8d4;strokeColor=#82b366;" parent="1" vertex="1">
          <mxGeometry x="546" y="1400" width="148" height="150" as="geometry" />
        </mxCell>
        <mxCell id="3AB0t5_sJRTs1TqdBcbe-228" value="&lt;p style=&quot;margin:0px;margin-top:4px;text-align:center;&quot;&gt;&lt;i&gt;&amp;lt;&amp;lt;static&amp;gt;&amp;gt;&lt;/i&gt;&lt;br&gt;&lt;b&gt;GerenciarExemplaresUI&lt;/b&gt;&lt;/p&gt;&lt;hr size=&quot;1&quot; style=&quot;border-style:solid;&quot;&gt;&lt;p style=&quot;margin:0px;margin-left:4px;&quot;&gt;&lt;br&gt;&lt;/p&gt;&lt;hr size=&quot;1&quot; style=&quot;border-style:solid;&quot;&gt;&lt;p style=&quot;margin:0px;margin-left:4px;&quot;&gt;&lt;span style=&quot;text-wrap-mode: nowrap; background-color: initial;&quot;&gt;+ Main(): void&lt;/span&gt;&lt;/p&gt;&lt;p style=&quot;margin:0px;margin-left:4px;&quot;&gt;&lt;br&gt;&lt;/p&gt;" style="verticalAlign=top;align=left;overflow=fill;html=1;whiteSpace=wrap;fillColor=#d5e8d4;strokeColor=#82b366;" parent="1" vertex="1">
          <mxGeometry x="542" y="1576" width="150" height="95" as="geometry" />
        </mxCell>
        <mxCell id="3AB0t5_sJRTs1TqdBcbe-229" value="&lt;p style=&quot;margin:0px;margin-top:4px;text-align:center;&quot;&gt;&lt;i&gt;&amp;lt;&amp;lt;static&amp;gt;&amp;gt;&lt;/i&gt;&lt;br&gt;&lt;b&gt;GerenciarEmprestimosUI&lt;/b&gt;&lt;/p&gt;&lt;hr size=&quot;1&quot; style=&quot;border-style:solid;&quot;&gt;&lt;p style=&quot;margin:0px;margin-left:4px;&quot;&gt;&lt;br&gt;&lt;/p&gt;&lt;hr size=&quot;1&quot; style=&quot;border-style:solid;&quot;&gt;&lt;p style=&quot;margin:0px;margin-left:4px;&quot;&gt;&lt;span style=&quot;text-wrap-mode: nowrap; background-color: initial;&quot;&gt;+ Main(): void&lt;/span&gt;&lt;/p&gt;&lt;p style=&quot;margin:0px;margin-left:4px;&quot;&gt;&lt;br&gt;&lt;/p&gt;" style="verticalAlign=top;align=left;overflow=fill;html=1;whiteSpace=wrap;fillColor=#d5e8d4;strokeColor=#82b366;" parent="1" vertex="1">
          <mxGeometry x="542" y="1687" width="150" height="95" as="geometry" />
        </mxCell>
        <mxCell id="3AB0t5_sJRTs1TqdBcbe-230" value="&lt;p style=&quot;margin:0px;margin-top:4px;text-align:center;&quot;&gt;&lt;i&gt;&amp;lt;&amp;lt;static&amp;gt;&amp;gt;&lt;/i&gt;&lt;br&gt;&lt;b&gt;LoginUI&lt;/b&gt;&lt;/p&gt;&lt;hr size=&quot;1&quot; style=&quot;border-style:solid;&quot;&gt;&lt;p style=&quot;margin:0px;margin-left:4px;&quot;&gt;&lt;br&gt;&lt;/p&gt;&lt;hr size=&quot;1&quot; style=&quot;border-style:solid;&quot;&gt;&lt;p style=&quot;margin:0px;margin-left:4px;&quot;&gt;&lt;span style=&quot;text-wrap-mode: nowrap; background-color: initial;&quot;&gt;+ Main(): void&lt;/span&gt;&lt;/p&gt;&lt;p style=&quot;margin:0px;margin-left:4px;&quot;&gt;&lt;br&gt;&lt;/p&gt;" style="verticalAlign=top;align=left;overflow=fill;html=1;whiteSpace=wrap;fillColor=#d5e8d4;strokeColor=#82b366;" parent="1" vertex="1">
          <mxGeometry x="542" y="1797" width="150" height="95" as="geometry" />
        </mxCell>
        <mxCell id="3AB0t5_sJRTs1TqdBcbe-233" value="&lt;p style=&quot;margin:0px;margin-top:4px;text-align:center;&quot;&gt;&lt;i&gt;&amp;lt;&amp;lt;static&amp;gt;&amp;gt;&lt;/i&gt;&lt;br&gt;&lt;b&gt;View_Python&lt;/b&gt;&lt;/p&gt;&lt;hr size=&quot;1&quot; style=&quot;border-style:solid;&quot;&gt;&lt;p style=&quot;margin:0px;margin-left:4px;&quot;&gt;&lt;br&gt;&lt;/p&gt;&lt;hr size=&quot;1&quot; style=&quot;border-style:solid;&quot;&gt;&lt;p style=&quot;margin:0px;margin-left:4px;&quot;&gt;&lt;span style=&quot;text-wrap-mode: nowrap; background-color: initial;&quot;&gt;+ Main&lt;/span&gt;&lt;span style=&quot;text-wrap-mode: nowrap; background-color: initial;&quot;&gt;(): void&lt;/span&gt;&lt;/p&gt;&lt;p style=&quot;margin:0px;margin-left:4px;&quot;&gt;&lt;br&gt;&lt;/p&gt;" style="verticalAlign=top;align=left;overflow=fill;html=1;whiteSpace=wrap;fillColor=#d5e8d4;strokeColor=#82b366;" parent="1" vertex="1">
          <mxGeometry x="77" y="1795" width="150" height="97" as="geometry" />
        </mxCell>
        <mxCell id="3AB0t5_sJRTs1TqdBcbe-234" style="edgeStyle=orthogonalEdgeStyle;rounded=0;orthogonalLoop=1;jettySize=auto;html=1;entryX=0.5;entryY=1;entryDx=0;entryDy=0;endArrow=baseDash;endFill=0;" parent="1" target="3AB0t5_sJRTs1TqdBcbe-240" edge="1">
          <mxGeometry relative="1" as="geometry">
            <mxPoint x="-280" y="217" as="sourcePoint" />
          </mxGeometry>
        </mxCell>
        <mxCell id="3AB0t5_sJRTs1TqdBcbe-236" style="edgeStyle=orthogonalEdgeStyle;rounded=0;orthogonalLoop=1;jettySize=auto;html=1;entryX=0.5;entryY=1;entryDx=0;entryDy=0;endArrow=baseDash;endFill=0;" parent="1" target="3AB0t5_sJRTs1TqdBcbe-242" edge="1">
          <mxGeometry relative="1" as="geometry">
            <mxPoint x="-250" y="217" as="sourcePoint" />
          </mxGeometry>
        </mxCell>
        <mxCell id="3AB0t5_sJRTs1TqdBcbe-237" style="edgeStyle=orthogonalEdgeStyle;rounded=0;orthogonalLoop=1;jettySize=auto;html=1;entryX=0.5;entryY=0;entryDx=0;entryDy=0;endArrow=baseDash;endFill=0;" parent="1" target="3AB0t5_sJRTs1TqdBcbe-244" edge="1">
          <mxGeometry relative="1" as="geometry">
            <mxPoint x="-250" y="241" as="sourcePoint" />
          </mxGeometry>
        </mxCell>
        <mxCell id="3AB0t5_sJRTs1TqdBcbe-238" style="edgeStyle=orthogonalEdgeStyle;rounded=0;orthogonalLoop=1;jettySize=auto;html=1;entryX=0.5;entryY=0;entryDx=0;entryDy=0;endArrow=baseDash;endFill=0;" parent="1" target="3AB0t5_sJRTs1TqdBcbe-243" edge="1">
          <mxGeometry relative="1" as="geometry">
            <mxPoint x="-280" y="241" as="sourcePoint" />
          </mxGeometry>
        </mxCell>
        <mxCell id="3AB0t5_sJRTs1TqdBcbe-239" value="Admin" style="shape=umlActor;verticalLabelPosition=bottom;verticalAlign=top;html=1;outlineConnect=0;" parent="1" vertex="1">
          <mxGeometry x="-280" y="211" width="30" height="60" as="geometry" />
        </mxCell>
        <mxCell id="3AB0t5_sJRTs1TqdBcbe-240" value="Manter cadastro de funcionário" style="ellipse;whiteSpace=wrap;html=1;" parent="1" vertex="1">
          <mxGeometry x="-420" y="121" width="90" height="70" as="geometry" />
        </mxCell>
        <mxCell id="RDJu3QqzxpKSYIwAovrP-11" style="edgeStyle=orthogonalEdgeStyle;rounded=0;orthogonalLoop=1;jettySize=auto;html=1;endArrow=none;startFill=0;exitX=0.5;exitY=0;exitDx=0;exitDy=0;" parent="1" source="3AB0t5_sJRTs1TqdBcbe-242" edge="1">
          <mxGeometry relative="1" as="geometry">
            <mxPoint x="-550" y="301" as="targetPoint" />
            <mxPoint x="-150" y="101" as="sourcePoint" />
            <Array as="points">
              <mxPoint x="-155" y="101" />
              <mxPoint x="-550" y="101" />
              <mxPoint x="-550" y="301" />
            </Array>
          </mxGeometry>
        </mxCell>
        <mxCell id="3AB0t5_sJRTs1TqdBcbe-242" value="Manter cadastro de livros" style="ellipse;whiteSpace=wrap;html=1;" parent="1" vertex="1">
          <mxGeometry x="-200" y="121" width="90" height="70" as="geometry" />
        </mxCell>
        <mxCell id="RDJu3QqzxpKSYIwAovrP-4" style="edgeStyle=orthogonalEdgeStyle;rounded=0;orthogonalLoop=1;jettySize=auto;html=1;exitX=0.023;exitY=0.671;exitDx=0;exitDy=0;endArrow=none;startFill=0;exitPerimeter=0;" parent="1" source="3AB0t5_sJRTs1TqdBcbe-243" edge="1">
          <mxGeometry relative="1" as="geometry">
            <mxPoint x="-520" y="336" as="targetPoint" />
            <Array as="points">
              <mxPoint x="-389" y="336" />
            </Array>
          </mxGeometry>
        </mxCell>
        <mxCell id="3AB0t5_sJRTs1TqdBcbe-243" value="Entrar no sistema" style="ellipse;whiteSpace=wrap;html=1;" parent="1" vertex="1">
          <mxGeometry x="-390" y="288.5" width="90" height="70" as="geometry" />
        </mxCell>
        <mxCell id="RDJu3QqzxpKSYIwAovrP-9" style="edgeStyle=orthogonalEdgeStyle;rounded=0;orthogonalLoop=1;jettySize=auto;html=1;exitX=0.5;exitY=1;exitDx=0;exitDy=0;endArrow=none;startFill=0;" parent="1" source="3AB0t5_sJRTs1TqdBcbe-244" target="3AB0t5_sJRTs1TqdBcbe-258" edge="1">
          <mxGeometry relative="1" as="geometry">
            <mxPoint x="-500" y="351" as="targetPoint" />
            <Array as="points">
              <mxPoint x="-185" y="371" />
            </Array>
          </mxGeometry>
        </mxCell>
        <mxCell id="3AB0t5_sJRTs1TqdBcbe-244" value="Manter cadastro de gêneros" style="ellipse;whiteSpace=wrap;html=1;" parent="1" vertex="1">
          <mxGeometry x="-230" y="291" width="90" height="70" as="geometry" />
        </mxCell>
        <mxCell id="3AB0t5_sJRTs1TqdBcbe-245" style="edgeStyle=orthogonalEdgeStyle;rounded=0;orthogonalLoop=1;jettySize=auto;html=1;entryX=0.5;entryY=1;entryDx=0;entryDy=0;endArrow=baseDash;endFill=0;" parent="1" target="3AB0t5_sJRTs1TqdBcbe-243" edge="1">
          <mxGeometry relative="1" as="geometry">
            <mxPoint x="-280" y="527" as="sourcePoint" />
            <mxPoint x="-375" y="500.99999999999955" as="targetPoint" />
          </mxGeometry>
        </mxCell>
        <mxCell id="3AB0t5_sJRTs1TqdBcbe-246" style="edgeStyle=orthogonalEdgeStyle;rounded=0;orthogonalLoop=1;jettySize=auto;html=1;entryX=0.5;entryY=1;entryDx=0;entryDy=0;endArrow=baseDash;endFill=0;" parent="1" target="3AB0t5_sJRTs1TqdBcbe-252" edge="1">
          <mxGeometry relative="1" as="geometry">
            <mxPoint x="-265" y="511" as="sourcePoint" />
          </mxGeometry>
        </mxCell>
        <mxCell id="3AB0t5_sJRTs1TqdBcbe-248" style="edgeStyle=orthogonalEdgeStyle;rounded=0;orthogonalLoop=1;jettySize=auto;html=1;entryX=0.5;entryY=0;entryDx=0;entryDy=0;endArrow=baseDash;endFill=0;" parent="1" target="3AB0t5_sJRTs1TqdBcbe-255" edge="1">
          <mxGeometry relative="1" as="geometry">
            <mxPoint x="-250" y="551" as="sourcePoint" />
          </mxGeometry>
        </mxCell>
        <mxCell id="3AB0t5_sJRTs1TqdBcbe-250" value="Cliente" style="shape=umlActor;verticalLabelPosition=bottom;verticalAlign=top;html=1;outlineConnect=0;" parent="1" vertex="1">
          <mxGeometry x="-280" y="521" width="30" height="60" as="geometry" />
        </mxCell>
        <mxCell id="3AB0t5_sJRTs1TqdBcbe-252" value="&lt;div&gt;Realizar cadastro no sistema&lt;/div&gt;" style="ellipse;whiteSpace=wrap;html=1;" parent="1" vertex="1">
          <mxGeometry x="-310" y="431" width="90" height="70" as="geometry" />
        </mxCell>
        <mxCell id="RDJu3QqzxpKSYIwAovrP-7" style="edgeStyle=orthogonalEdgeStyle;rounded=0;orthogonalLoop=1;jettySize=auto;html=1;exitX=0.5;exitY=0;exitDx=0;exitDy=0;endArrow=none;startFill=0;" parent="1" source="3AB0t5_sJRTs1TqdBcbe-253" edge="1">
          <mxGeometry relative="1" as="geometry">
            <mxPoint x="-545" y="401" as="targetPoint" />
          </mxGeometry>
        </mxCell>
        <mxCell id="3AB0t5_sJRTs1TqdBcbe-253" value="Cunsultar exemplares e&amp;nbsp; disponibilidade" style="ellipse;whiteSpace=wrap;html=1;" parent="1" vertex="1">
          <mxGeometry x="-595" y="441" width="100" height="70" as="geometry" />
        </mxCell>
        <mxCell id="3AB0t5_sJRTs1TqdBcbe-255" value="Solicitar aumento de prazo do empréstimo" style="ellipse;whiteSpace=wrap;html=1;" parent="1" vertex="1">
          <mxGeometry x="-200" y="611" width="90" height="70" as="geometry" />
        </mxCell>
        <mxCell id="3AB0t5_sJRTs1TqdBcbe-256" style="edgeStyle=orthogonalEdgeStyle;rounded=0;orthogonalLoop=1;jettySize=auto;html=1;entryX=0.5;entryY=0;entryDx=0;entryDy=0;endArrow=baseDash;endFill=0;" parent="1" target="3AB0t5_sJRTs1TqdBcbe-257" edge="1">
          <mxGeometry relative="1" as="geometry">
            <mxPoint x="-265" y="606" as="sourcePoint" />
          </mxGeometry>
        </mxCell>
        <mxCell id="3AB0t5_sJRTs1TqdBcbe-257" value="Consultar empréstimos" style="ellipse;whiteSpace=wrap;html=1;" parent="1" vertex="1">
          <mxGeometry x="-310" y="616" width="90" height="65" as="geometry" />
        </mxCell>
        <mxCell id="3AB0t5_sJRTs1TqdBcbe-258" value="Funcionário" style="shape=umlActor;verticalLabelPosition=bottom;verticalAlign=top;html=1;outlineConnect=0;" parent="1" vertex="1">
          <mxGeometry x="-560" y="316" width="30" height="60" as="geometry" />
        </mxCell>
        <mxCell id="3AB0t5_sJRTs1TqdBcbe-259" style="edgeStyle=orthogonalEdgeStyle;rounded=0;orthogonalLoop=1;jettySize=auto;html=1;entryX=1;entryY=0.5;entryDx=0;entryDy=0;endArrow=baseDash;endFill=0;" parent="1" source="3AB0t5_sJRTs1TqdBcbe-258" target="3AB0t5_sJRTs1TqdBcbe-260" edge="1">
          <mxGeometry relative="1" as="geometry" />
        </mxCell>
        <mxCell id="3AB0t5_sJRTs1TqdBcbe-260" value="Manter cadastro de exemplares&amp;nbsp;" style="ellipse;whiteSpace=wrap;html=1;strokeColor=default;align=center;verticalAlign=middle;fontFamily=Helvetica;fontSize=12;fontColor=default;fillColor=default;" parent="1" vertex="1">
          <mxGeometry x="-700" y="312.25" width="90" height="67.5" as="geometry" />
        </mxCell>
        <mxCell id="RDJu3QqzxpKSYIwAovrP-6" style="edgeStyle=orthogonalEdgeStyle;rounded=0;orthogonalLoop=1;jettySize=auto;html=1;entryX=0;entryY=0.3333333333333333;entryDx=0;entryDy=0;entryPerimeter=0;endArrow=none;startFill=0;" parent="1" edge="1">
          <mxGeometry relative="1" as="geometry">
            <mxPoint x="-545" y="511" as="sourcePoint" />
            <mxPoint x="-288" y="540.9999999999995" as="targetPoint" />
            <Array as="points">
              <mxPoint x="-545" y="541" />
            </Array>
          </mxGeometry>
        </mxCell>
        <mxCell id="RDJu3QqzxpKSYIwAovrP-13" style="edgeStyle=orthogonalEdgeStyle;rounded=0;orthogonalLoop=1;jettySize=auto;html=1;exitX=1;exitY=0.5;exitDx=0;exitDy=0;endArrow=none;startFill=0;" parent="1" source="RDJu3QqzxpKSYIwAovrP-12" edge="1">
          <mxGeometry relative="1" as="geometry">
            <mxPoint x="-560" y="321" as="targetPoint" />
            <Array as="points">
              <mxPoint x="-590" y="255" />
              <mxPoint x="-590" y="321" />
            </Array>
          </mxGeometry>
        </mxCell>
        <mxCell id="RDJu3QqzxpKSYIwAovrP-12" value="Gerenciar prazos de devolução" style="ellipse;whiteSpace=wrap;html=1;strokeColor=default;align=center;verticalAlign=middle;fontFamily=Helvetica;fontSize=12;fontColor=default;fillColor=default;" parent="1" vertex="1">
          <mxGeometry x="-700" y="221" width="90" height="67.5" as="geometry" />
        </mxCell>
        <mxCell id="RDJu3QqzxpKSYIwAovrP-15" style="edgeStyle=orthogonalEdgeStyle;rounded=0;orthogonalLoop=1;jettySize=auto;html=1;exitX=1;exitY=0.5;exitDx=0;exitDy=0;endArrow=none;startFill=0;" parent="1" source="RDJu3QqzxpKSYIwAovrP-14" target="3AB0t5_sJRTs1TqdBcbe-258" edge="1">
          <mxGeometry relative="1" as="geometry">
            <mxPoint x="-570" y="371" as="targetPoint" />
            <Array as="points">
              <mxPoint x="-590" y="440" />
              <mxPoint x="-590" y="371" />
            </Array>
          </mxGeometry>
        </mxCell>
        <mxCell id="RDJu3QqzxpKSYIwAovrP-14" value="Gerenciar empréstimos de exemplares" style="ellipse;whiteSpace=wrap;html=1;strokeColor=default;align=center;verticalAlign=middle;fontFamily=Helvetica;fontSize=12;fontColor=default;fillColor=default;" parent="1" vertex="1">
          <mxGeometry x="-700" y="406" width="90" height="67.5" as="geometry" />
        </mxCell>
        <mxCell id="SJzPHD_1Gn2At19BkOxS-11" style="edgeStyle=orthogonalEdgeStyle;rounded=0;orthogonalLoop=1;jettySize=auto;html=1;exitX=1;exitY=0.5;exitDx=0;exitDy=0;endArrow=none;endFill=0;" parent="1" source="SJzPHD_1Gn2At19BkOxS-10" edge="1">
          <mxGeometry relative="1" as="geometry">
            <mxPoint x="-280" y="253" as="targetPoint" />
          </mxGeometry>
        </mxCell>
        <mxCell id="SJzPHD_1Gn2At19BkOxS-12" style="edgeStyle=orthogonalEdgeStyle;rounded=0;orthogonalLoop=1;jettySize=auto;html=1;exitX=0;exitY=0.5;exitDx=0;exitDy=0;endArrow=none;endFill=0;" parent="1" source="SJzPHD_1Gn2At19BkOxS-10" edge="1">
          <mxGeometry relative="1" as="geometry">
            <mxPoint x="-537" y="311" as="targetPoint" />
            <Array as="points">
              <mxPoint x="-538" y="253" />
            </Array>
          </mxGeometry>
        </mxCell>
        <mxCell id="SJzPHD_1Gn2At19BkOxS-13" style="edgeStyle=orthogonalEdgeStyle;rounded=0;orthogonalLoop=1;jettySize=auto;html=1;exitX=0.5;exitY=1;exitDx=0;exitDy=0;endArrow=none;endFill=0;" parent="1" edge="1">
          <mxGeometry relative="1" as="geometry">
            <mxPoint x="-293" y="570" as="targetPoint" />
            <mxPoint x="-428" y="261" as="sourcePoint" />
            <Array as="points">
              <mxPoint x="-450" y="261" />
              <mxPoint x="-450" y="570" />
              <mxPoint x="-293" y="570" />
            </Array>
          </mxGeometry>
        </mxCell>
        <mxCell id="SJzPHD_1Gn2At19BkOxS-10" value="Sair do sistema" style="ellipse;whiteSpace=wrap;html=1;" parent="1" vertex="1">
          <mxGeometry x="-495" y="218.5" width="90" height="70" as="geometry" />
        </mxCell>
        <mxCell id="SJzPHD_1Gn2At19BkOxS-30" value="&lt;p style=&quot;margin:0px;margin-top:4px;text-align:center;&quot;&gt;&lt;i&gt;&amp;lt;&amp;lt;static&amp;gt;&amp;gt;&lt;/i&gt;&lt;br&gt;&lt;b&gt;ManterExemplarUI&lt;/b&gt;&lt;/p&gt;&lt;hr size=&quot;1&quot; style=&quot;border-style:solid;&quot;&gt;&lt;p style=&quot;margin:0px;margin-left:4px;&quot;&gt;&lt;br&gt;&lt;/p&gt;&lt;hr size=&quot;1&quot; style=&quot;border-style:solid;&quot;&gt;&lt;p style=&quot;margin: 0px 0px 0px 4px;&quot;&gt;&lt;span style=&quot;text-wrap-mode: nowrap; background-color: initial;&quot;&gt;+ Main(): void&lt;/span&gt;&lt;/p&gt;&lt;p style=&quot;margin: 0px 0px 0px 4px;&quot;&gt;&lt;span style=&quot;text-wrap-mode: nowrap; background-color: initial;&quot;&gt;+ Exemplar_Listar(): list&lt;/span&gt;&lt;/p&gt;&lt;p style=&quot;margin: 0px 0px 0px 4px;&quot;&gt;&lt;span style=&quot;text-wrap-mode: nowrap; background-color: initial;&quot;&gt;+ Exemplar&lt;/span&gt;&lt;span style=&quot;text-wrap-mode: nowrap; background-color: initial;&quot;&gt;_Inserir(): void&lt;/span&gt;&lt;/p&gt;&lt;p style=&quot;margin: 0px 0px 0px 4px;&quot;&gt;&lt;span style=&quot;text-wrap-mode: nowrap; background-color: initial;&quot;&gt;+ Exemplar&lt;/span&gt;&lt;span style=&quot;text-wrap-mode: nowrap; background-color: initial;&quot;&gt;_Atualizar(): void&lt;/span&gt;&lt;/p&gt;&lt;p style=&quot;margin: 0px 0px 0px 4px;&quot;&gt;&lt;span style=&quot;text-wrap-mode: nowrap; background-color: initial;&quot;&gt;+ Exemplar&lt;/span&gt;&lt;span style=&quot;text-wrap-mode: nowrap; background-color: initial;&quot;&gt;_Excluir(): void&lt;/span&gt;&lt;/p&gt;" style="verticalAlign=top;align=left;overflow=fill;html=1;whiteSpace=wrap;fillColor=#d5e8d4;strokeColor=#82b366;" parent="1" vertex="1">
          <mxGeometry x="379" y="1400" width="161" height="150" as="geometry" />
        </mxCell>
        <mxCell id="st0J9N4TLg85rTO5cKsw-1" value="&lt;font style=&quot;font-size: 14px;&quot;&gt;&lt;b&gt;Diagramas de Classes do Modelo&lt;/b&gt;&lt;/font&gt;" style="text;html=1;align=center;verticalAlign=middle;whiteSpace=wrap;rounded=0;" parent="1" vertex="1">
          <mxGeometry x="527" y="30" width="260" height="30" as="geometry" />
        </mxCell>
        <mxCell id="st0J9N4TLg85rTO5cKsw-2" value="&lt;font style=&quot;font-size: 14px;&quot;&gt;&lt;b&gt;Diagramas de Classes de Operações - Python&lt;/b&gt;&lt;/font&gt;" style="text;html=1;align=center;verticalAlign=middle;whiteSpace=wrap;rounded=0;" parent="1" vertex="1">
          <mxGeometry x="-645" y="720" width="310" height="30" as="geometry" />
        </mxCell>
        <mxCell id="st0J9N4TLg85rTO5cKsw-3" value="&lt;font style=&quot;font-size: 14px;&quot;&gt;&lt;b&gt;Diagramas de Casos de Uso&lt;/b&gt;&lt;/font&gt;" style="text;html=1;align=center;verticalAlign=middle;whiteSpace=wrap;rounded=0;" parent="1" vertex="1">
          <mxGeometry x="-568" y="60" width="260" height="30" as="geometry" />
        </mxCell>
        <mxCell id="st0J9N4TLg85rTO5cKsw-4" value="&lt;font style=&quot;font-size: 14px;&quot;&gt;&lt;b&gt;Diagramas de Classes de Interfacde do Usuário&lt;/b&gt;&lt;/font&gt;" style="text;html=1;align=center;verticalAlign=middle;whiteSpace=wrap;rounded=0;" parent="1" vertex="1">
          <mxGeometry x="220" y="1310" width="330" height="30" as="geometry" />
        </mxCell>
        <mxCell id="st0J9N4TLg85rTO5cKsw-100" value="&lt;font style=&quot;font-size: 14px;&quot;&gt;&lt;b&gt;Diagramras de Persistência&lt;/b&gt;&lt;/font&gt;" style="text;html=1;align=center;verticalAlign=middle;whiteSpace=wrap;rounded=0;" parent="1" vertex="1">
          <mxGeometry x="1113" y="710" width="260" height="30" as="geometry" />
        </mxCell>
        <mxCell id="st0J9N4TLg85rTO5cKsw-111" style="edgeStyle=orthogonalEdgeStyle;rounded=0;orthogonalLoop=1;jettySize=auto;html=1;entryX=0;entryY=0.5;entryDx=0;entryDy=0;endArrow=none;startFill=0;" parent="1" target="3AB0t5_sJRTs1TqdBcbe-57" edge="1">
          <mxGeometry relative="1" as="geometry">
            <mxPoint x="210" y="160" as="sourcePoint" />
            <Array as="points">
              <mxPoint x="210" y="160" />
            </Array>
          </mxGeometry>
        </mxCell>
        <mxCell id="st0J9N4TLg85rTO5cKsw-112" style="edgeStyle=orthogonalEdgeStyle;rounded=0;orthogonalLoop=1;jettySize=auto;html=1;exitX=1;exitY=0.5;exitDx=0;exitDy=0;endArrow=none;startFill=0;entryX=0;entryY=0.457;entryDx=0;entryDy=0;entryPerimeter=0;" parent="1" source="3AB0t5_sJRTs1TqdBcbe-57" target="SJzPHD_1Gn2At19BkOxS-18" edge="1">
          <mxGeometry relative="1" as="geometry">
            <mxPoint x="770" y="160" as="targetPoint" />
          </mxGeometry>
        </mxCell>
        <mxCell id="st0J9N4TLg85rTO5cKsw-113" style="edgeStyle=orthogonalEdgeStyle;rounded=0;orthogonalLoop=1;jettySize=auto;html=1;entryX=-0.001;entryY=0.56;entryDx=0;entryDy=0;endArrow=none;startFill=0;exitX=1;exitY=0.5;exitDx=0;exitDy=0;entryPerimeter=0;" parent="1" source="SJzPHD_1Gn2At19BkOxS-18" target="SJzPHD_1Gn2At19BkOxS-26" edge="1">
          <mxGeometry relative="1" as="geometry">
            <mxPoint x="1240" y="160" as="sourcePoint" />
          </mxGeometry>
        </mxCell>
        <mxCell id="st0J9N4TLg85rTO5cKsw-114" style="edgeStyle=orthogonalEdgeStyle;rounded=0;orthogonalLoop=1;jettySize=auto;html=1;exitX=1;exitY=0.5;exitDx=0;exitDy=0;entryX=0;entryY=0.5;entryDx=0;entryDy=0;endArrow=none;startFill=0;" parent="1" source="SJzPHD_1Gn2At19BkOxS-26" target="3AB0t5_sJRTs1TqdBcbe-4" edge="1">
          <mxGeometry relative="1" as="geometry" />
        </mxCell>
        <mxCell id="st0J9N4TLg85rTO5cKsw-115" value="1" style="text;html=1;align=center;verticalAlign=middle;whiteSpace=wrap;rounded=0;" parent="1" vertex="1">
          <mxGeometry x="210" y="145" width="21" height="14" as="geometry" />
        </mxCell>
        <mxCell id="st0J9N4TLg85rTO5cKsw-116" value="*" style="text;html=1;align=center;verticalAlign=middle;whiteSpace=wrap;rounded=0;" parent="1" vertex="1">
          <mxGeometry x="309" y="149" width="21" height="14" as="geometry" />
        </mxCell>
        <mxCell id="st0J9N4TLg85rTO5cKsw-117" value="1" style="text;html=1;align=center;verticalAlign=middle;whiteSpace=wrap;rounded=0;" parent="1" vertex="1">
          <mxGeometry x="655" y="145" width="21" height="14" as="geometry" />
        </mxCell>
        <mxCell id="st0J9N4TLg85rTO5cKsw-118" value="*" style="text;html=1;align=center;verticalAlign=middle;whiteSpace=wrap;rounded=0;" parent="1" vertex="1">
          <mxGeometry x="751" y="149" width="21" height="14" as="geometry" />
        </mxCell>
        <mxCell id="st0J9N4TLg85rTO5cKsw-119" value="1" style="text;html=1;align=center;verticalAlign=middle;whiteSpace=wrap;rounded=0;" parent="1" vertex="1">
          <mxGeometry x="1237" y="145" width="21" height="14" as="geometry" />
        </mxCell>
        <mxCell id="st0J9N4TLg85rTO5cKsw-120" value="*" style="text;html=1;align=center;verticalAlign=middle;whiteSpace=wrap;rounded=0;" parent="1" vertex="1">
          <mxGeometry x="1329" y="149" width="21" height="14" as="geometry" />
        </mxCell>
        <mxCell id="st0J9N4TLg85rTO5cKsw-121" value="1" style="text;html=1;align=center;verticalAlign=middle;whiteSpace=wrap;rounded=0;" parent="1" vertex="1">
          <mxGeometry x="2028" y="145" width="21" height="14" as="geometry" />
        </mxCell>
        <mxCell id="st0J9N4TLg85rTO5cKsw-122" value="*" style="text;html=1;align=center;verticalAlign=middle;whiteSpace=wrap;rounded=0;" parent="1" vertex="1">
          <mxGeometry x="1935" y="149" width="21" height="14" as="geometry" />
        </mxCell>
        <mxCell id="st0J9N4TLg85rTO5cKsw-123" value="&amp;lt;&amp;lt;static&amp;gt;&amp;gt;&lt;br&gt;&lt;b&gt;Modelo&lt;/b&gt;" style="html=1;whiteSpace=wrap;" parent="1" vertex="1">
          <mxGeometry x="1244" y="1619" width="110" height="50" as="geometry" />
        </mxCell>
        <mxCell id="st0J9N4TLg85rTO5cKsw-131" style="edgeStyle=orthogonalEdgeStyle;rounded=0;orthogonalLoop=1;jettySize=auto;html=1;exitX=1;exitY=0.5;exitDx=0;exitDy=0;endArrow=block;endFill=0;" parent="1" source="3AB0t5_sJRTs1TqdBcbe-198" edge="1">
          <mxGeometry relative="1" as="geometry">
            <mxPoint x="1265" y="1669" as="targetPoint" />
          </mxGeometry>
        </mxCell>
        <mxCell id="st0J9N4TLg85rTO5cKsw-132" style="edgeStyle=orthogonalEdgeStyle;rounded=0;orthogonalLoop=1;jettySize=auto;html=1;exitX=0;exitY=0.5;exitDx=0;exitDy=0;entryX=0.811;entryY=0.998;entryDx=0;entryDy=0;entryPerimeter=0;endArrow=block;endFill=0;" parent="1" source="3AB0t5_sJRTs1TqdBcbe-200" target="st0J9N4TLg85rTO5cKsw-123" edge="1">
          <mxGeometry relative="1" as="geometry" />
        </mxCell>
        <mxCell id="st0J9N4TLg85rTO5cKsw-133" value="&lt;&lt;static&gt;&gt;&#xa;Modelo" style="swimlane;fontStyle=2;align=center;verticalAlign=top;childLayout=stackLayout;horizontal=1;startSize=42;horizontalStack=0;resizeParent=1;resizeLast=0;collapsible=1;marginBottom=0;rounded=0;shadow=0;strokeWidth=1;" parent="1" vertex="1">
          <mxGeometry x="1148.5" y="770" width="180" height="256" as="geometry">
            <mxRectangle x="230" y="140" width="160" height="26" as="alternateBounds" />
          </mxGeometry>
        </mxCell>
        <mxCell id="st0J9N4TLg85rTO5cKsw-134" value="- objetos: list &lt;Object&gt;" style="text;align=left;verticalAlign=top;spacingLeft=4;spacingRight=4;overflow=hidden;rotatable=0;points=[[0,0.5],[1,0.5]];portConstraint=eastwest;" parent="st0J9N4TLg85rTO5cKsw-133" vertex="1">
          <mxGeometry y="42" width="180" height="26" as="geometry" />
        </mxCell>
        <mxCell id="st0J9N4TLg85rTO5cKsw-135" value="" style="line;html=1;strokeWidth=1;align=left;verticalAlign=middle;spacingTop=-1;spacingLeft=3;spacingRight=3;rotatable=0;labelPosition=right;points=[];portConstraint=eastwest;" parent="st0J9N4TLg85rTO5cKsw-133" vertex="1">
          <mxGeometry y="68" width="180" height="10" as="geometry" />
        </mxCell>
        <mxCell id="st0J9N4TLg85rTO5cKsw-136" value="+ Inserir(obj: Object): void" style="text;align=left;verticalAlign=top;spacingLeft=4;spacingRight=4;overflow=hidden;rotatable=0;points=[[0,0.5],[1,0.5]];portConstraint=eastwest;" parent="st0J9N4TLg85rTO5cKsw-133" vertex="1">
          <mxGeometry y="78" width="180" height="26" as="geometry" />
        </mxCell>
        <mxCell id="st0J9N4TLg85rTO5cKsw-137" value="+ Listar(): List&lt;Object&gt;" style="text;align=left;verticalAlign=top;spacingLeft=4;spacingRight=4;overflow=hidden;rotatable=0;points=[[0,0.5],[1,0.5]];portConstraint=eastwest;" parent="st0J9N4TLg85rTO5cKsw-133" vertex="1">
          <mxGeometry y="104" width="180" height="26" as="geometry" />
        </mxCell>
        <mxCell id="st0J9N4TLg85rTO5cKsw-138" value="+ Listar_Id(id: int): Object" style="text;align=left;verticalAlign=top;spacingLeft=4;spacingRight=4;overflow=hidden;rotatable=0;points=[[0,0.5],[1,0.5]];portConstraint=eastwest;" parent="st0J9N4TLg85rTO5cKsw-133" vertex="1">
          <mxGeometry y="130" width="180" height="26" as="geometry" />
        </mxCell>
        <mxCell id="st0J9N4TLg85rTO5cKsw-139" value="+ Atualizar(obj: Object): void" style="text;align=left;verticalAlign=top;spacingLeft=4;spacingRight=4;overflow=hidden;rotatable=0;points=[[0,0.5],[1,0.5]];portConstraint=eastwest;" parent="st0J9N4TLg85rTO5cKsw-133" vertex="1">
          <mxGeometry y="156" width="180" height="26" as="geometry" />
        </mxCell>
        <mxCell id="st0J9N4TLg85rTO5cKsw-140" value="+ Excluir(obj: Object): void" style="text;align=left;verticalAlign=top;spacingLeft=4;spacingRight=4;overflow=hidden;rotatable=0;points=[[0,0.5],[1,0.5]];portConstraint=eastwest;" parent="st0J9N4TLg85rTO5cKsw-133" vertex="1">
          <mxGeometry y="182" width="180" height="24" as="geometry" />
        </mxCell>
        <mxCell id="st0J9N4TLg85rTO5cKsw-141" value="+ Salvar(): void" style="text;align=left;verticalAlign=top;spacingLeft=4;spacingRight=4;overflow=hidden;rotatable=0;points=[[0,0.5],[1,0.5]];portConstraint=eastwest;" parent="st0J9N4TLg85rTO5cKsw-133" vertex="1">
          <mxGeometry y="206" width="180" height="26" as="geometry" />
        </mxCell>
        <mxCell id="st0J9N4TLg85rTO5cKsw-142" value="+ Abrir(): void" style="text;align=left;verticalAlign=top;spacingLeft=4;spacingRight=4;overflow=hidden;rotatable=0;points=[[0,0.5],[1,0.5]];portConstraint=eastwest;" parent="st0J9N4TLg85rTO5cKsw-133" vertex="1">
          <mxGeometry y="232" width="180" height="24" as="geometry" />
        </mxCell>
        <mxCell id="st0J9N4TLg85rTO5cKsw-144" style="edgeStyle=orthogonalEdgeStyle;rounded=0;orthogonalLoop=1;jettySize=auto;html=1;exitX=1;exitY=0.25;exitDx=0;exitDy=0;entryX=0;entryY=0.604;entryDx=0;entryDy=0;entryPerimeter=0;endArrow=block;endFill=0;" parent="1" source="3AB0t5_sJRTs1TqdBcbe-21" target="st0J9N4TLg85rTO5cKsw-134" edge="1">
          <mxGeometry relative="1" as="geometry" />
        </mxCell>
        <mxCell id="st0J9N4TLg85rTO5cKsw-145" style="edgeStyle=orthogonalEdgeStyle;rounded=0;orthogonalLoop=1;jettySize=auto;html=1;exitX=1;exitY=0.25;exitDx=0;exitDy=0;entryX=-0.001;entryY=0.23;entryDx=0;entryDy=0;entryPerimeter=0;endArrow=block;endFill=0;" parent="1" source="3AB0t5_sJRTs1TqdBcbe-43" target="st0J9N4TLg85rTO5cKsw-142" edge="1">
          <mxGeometry relative="1" as="geometry" />
        </mxCell>
        <mxCell id="st0J9N4TLg85rTO5cKsw-146" style="edgeStyle=orthogonalEdgeStyle;rounded=0;orthogonalLoop=1;jettySize=auto;html=1;exitX=0;exitY=0.25;exitDx=0;exitDy=0;entryX=1.005;entryY=0.23;entryDx=0;entryDy=0;entryPerimeter=0;endArrow=block;endFill=0;" parent="1" source="3AB0t5_sJRTs1TqdBcbe-105" target="st0J9N4TLg85rTO5cKsw-142" edge="1">
          <mxGeometry relative="1" as="geometry" />
        </mxCell>
        <mxCell id="st0J9N4TLg85rTO5cKsw-148" style="edgeStyle=orthogonalEdgeStyle;rounded=0;orthogonalLoop=1;jettySize=auto;html=1;exitX=0;exitY=0.25;exitDx=0;exitDy=0;entryX=0.998;entryY=0.601;entryDx=0;entryDy=0;entryPerimeter=0;endArrow=block;endFill=0;" parent="1" source="3AB0t5_sJRTs1TqdBcbe-138" target="st0J9N4TLg85rTO5cKsw-134" edge="1">
          <mxGeometry relative="1" as="geometry" />
        </mxCell>
        <mxCell id="fH2ZrLtAb3C_Z9vUvOBv-1" style="edgeStyle=orthogonalEdgeStyle;rounded=0;orthogonalLoop=1;jettySize=auto;html=1;entryX=0.5;entryY=1;entryDx=0;entryDy=0;endArrow=baseDash;endFill=0;fillColor=#d5e8d4;strokeColor=#82b366;" parent="1" target="fH2ZrLtAb3C_Z9vUvOBv-6" edge="1">
          <mxGeometry relative="1" as="geometry">
            <mxPoint x="2238.5" y="1040" as="sourcePoint" />
          </mxGeometry>
        </mxCell>
        <mxCell id="fH2ZrLtAb3C_Z9vUvOBv-2" style="edgeStyle=orthogonalEdgeStyle;rounded=0;orthogonalLoop=1;jettySize=auto;html=1;entryX=0.5;entryY=1;entryDx=0;entryDy=0;endArrow=baseDash;endFill=0;fillColor=#d5e8d4;strokeColor=#82b366;" parent="1" target="fH2ZrLtAb3C_Z9vUvOBv-8" edge="1">
          <mxGeometry relative="1" as="geometry">
            <mxPoint x="2268.5" y="1040" as="sourcePoint" />
          </mxGeometry>
        </mxCell>
        <mxCell id="fH2ZrLtAb3C_Z9vUvOBv-3" style="edgeStyle=orthogonalEdgeStyle;rounded=0;orthogonalLoop=1;jettySize=auto;html=1;entryX=0.5;entryY=0;entryDx=0;entryDy=0;endArrow=baseDash;endFill=0;fillColor=#d5e8d4;strokeColor=#82b366;" parent="1" target="fH2ZrLtAb3C_Z9vUvOBv-12" edge="1">
          <mxGeometry relative="1" as="geometry">
            <mxPoint x="2268.5" y="1064" as="sourcePoint" />
          </mxGeometry>
        </mxCell>
        <mxCell id="fH2ZrLtAb3C_Z9vUvOBv-4" style="edgeStyle=orthogonalEdgeStyle;rounded=0;orthogonalLoop=1;jettySize=auto;html=1;entryX=0.5;entryY=0;entryDx=0;entryDy=0;endArrow=baseDash;endFill=0;fillColor=#dae8fc;strokeColor=#6c8ebf;" parent="1" target="fH2ZrLtAb3C_Z9vUvOBv-10" edge="1">
          <mxGeometry relative="1" as="geometry">
            <mxPoint x="2239" y="1086" as="sourcePoint" />
            <Array as="points">
              <mxPoint x="2239" y="1086" />
              <mxPoint x="2174" y="1086" />
            </Array>
          </mxGeometry>
        </mxCell>
        <mxCell id="fH2ZrLtAb3C_Z9vUvOBv-5" value="Admin" style="shape=umlActor;verticalLabelPosition=bottom;verticalAlign=top;html=1;outlineConnect=0;fillColor=#d5e8d4;strokeColor=#82b366;" parent="1" vertex="1">
          <mxGeometry x="2238.5" y="1034" width="30" height="60" as="geometry" />
        </mxCell>
        <mxCell id="fH2ZrLtAb3C_Z9vUvOBv-6" value="Manter cadastro de funcionário" style="ellipse;whiteSpace=wrap;html=1;fillColor=#d5e8d4;strokeColor=#82b366;" parent="1" vertex="1">
          <mxGeometry x="2098.5" y="944" width="90" height="70" as="geometry" />
        </mxCell>
        <mxCell id="fH2ZrLtAb3C_Z9vUvOBv-7" style="edgeStyle=orthogonalEdgeStyle;rounded=0;orthogonalLoop=1;jettySize=auto;html=1;endArrow=none;startFill=0;exitX=0.5;exitY=0;exitDx=0;exitDy=0;fillColor=#d5e8d4;strokeColor=#82b366;" parent="1" source="fH2ZrLtAb3C_Z9vUvOBv-8" edge="1">
          <mxGeometry relative="1" as="geometry">
            <mxPoint x="1968.5" y="1124" as="targetPoint" />
            <mxPoint x="2368.5" y="924" as="sourcePoint" />
            <Array as="points">
              <mxPoint x="2363.5" y="924" />
              <mxPoint x="1968.5" y="924" />
              <mxPoint x="1968.5" y="1124" />
            </Array>
          </mxGeometry>
        </mxCell>
        <mxCell id="fH2ZrLtAb3C_Z9vUvOBv-8" value="Manter cadastro de livros" style="ellipse;whiteSpace=wrap;html=1;fillColor=#d5e8d4;strokeColor=#82b366;" parent="1" vertex="1">
          <mxGeometry x="2318.5" y="944" width="90" height="70" as="geometry" />
        </mxCell>
        <mxCell id="fH2ZrLtAb3C_Z9vUvOBv-9" style="edgeStyle=orthogonalEdgeStyle;rounded=0;orthogonalLoop=1;jettySize=auto;html=1;exitX=0.029;exitY=0.672;exitDx=0;exitDy=0;endArrow=none;startFill=0;exitPerimeter=0;fillColor=#dae8fc;strokeColor=#6c8ebf;" parent="1" source="fH2ZrLtAb3C_Z9vUvOBv-10" edge="1">
          <mxGeometry relative="1" as="geometry">
            <mxPoint x="1991" y="1159" as="targetPoint" />
            <Array as="points">
              <mxPoint x="2129" y="1158" />
            </Array>
          </mxGeometry>
        </mxCell>
        <mxCell id="fH2ZrLtAb3C_Z9vUvOBv-10" value="Entrar no sistema" style="ellipse;whiteSpace=wrap;html=1;fillColor=#dae8fc;strokeColor=#6c8ebf;" parent="1" vertex="1">
          <mxGeometry x="2128.5" y="1111.5" width="90" height="70" as="geometry" />
        </mxCell>
        <mxCell id="fH2ZrLtAb3C_Z9vUvOBv-11" style="edgeStyle=orthogonalEdgeStyle;rounded=0;orthogonalLoop=1;jettySize=auto;html=1;exitX=0.5;exitY=1;exitDx=0;exitDy=0;endArrow=none;startFill=0;fillColor=#d5e8d4;strokeColor=#82b366;" parent="1" source="fH2ZrLtAb3C_Z9vUvOBv-12" edge="1">
          <mxGeometry relative="1" as="geometry">
            <mxPoint x="1991" y="1194" as="targetPoint" />
            <Array as="points">
              <mxPoint x="2333.5" y="1194" />
            </Array>
          </mxGeometry>
        </mxCell>
        <mxCell id="fH2ZrLtAb3C_Z9vUvOBv-12" value="Manter cadastro de gêneros" style="ellipse;whiteSpace=wrap;html=1;fillColor=#d5e8d4;strokeColor=#82b366;" parent="1" vertex="1">
          <mxGeometry x="2288.5" y="1114" width="90" height="70" as="geometry" />
        </mxCell>
        <mxCell id="fH2ZrLtAb3C_Z9vUvOBv-13" style="edgeStyle=orthogonalEdgeStyle;rounded=0;orthogonalLoop=1;jettySize=auto;html=1;entryX=0.5;entryY=1;entryDx=0;entryDy=0;endArrow=none;endFill=0;fillColor=#dae8fc;strokeColor=#6c8ebf;startFill=0;" parent="1" target="fH2ZrLtAb3C_Z9vUvOBv-10" edge="1">
          <mxGeometry relative="1" as="geometry">
            <mxPoint x="2231" y="1350" as="sourcePoint" />
            <mxPoint x="2143.5" y="1323.9999999999995" as="targetPoint" />
          </mxGeometry>
        </mxCell>
        <mxCell id="fH2ZrLtAb3C_Z9vUvOBv-14" style="edgeStyle=orthogonalEdgeStyle;rounded=0;orthogonalLoop=1;jettySize=auto;html=1;entryX=0.5;entryY=1;entryDx=0;entryDy=0;endArrow=baseDash;endFill=0;fillColor=#f8cecc;strokeColor=#b85450;" parent="1" target="fH2ZrLtAb3C_Z9vUvOBv-17" edge="1">
          <mxGeometry relative="1" as="geometry">
            <mxPoint x="2247.5" y="1334" as="sourcePoint" />
          </mxGeometry>
        </mxCell>
        <mxCell id="fH2ZrLtAb3C_Z9vUvOBv-15" style="edgeStyle=orthogonalEdgeStyle;rounded=0;orthogonalLoop=1;jettySize=auto;html=1;entryX=0.5;entryY=0;entryDx=0;entryDy=0;endArrow=baseDash;endFill=0;fillColor=#f8cecc;strokeColor=#b85450;" parent="1" target="fH2ZrLtAb3C_Z9vUvOBv-20" edge="1">
          <mxGeometry relative="1" as="geometry">
            <mxPoint x="2262.5" y="1374" as="sourcePoint" />
          </mxGeometry>
        </mxCell>
        <mxCell id="fH2ZrLtAb3C_Z9vUvOBv-16" value="Cliente" style="shape=umlActor;verticalLabelPosition=bottom;verticalAlign=top;html=1;outlineConnect=0;fillColor=#f8cecc;strokeColor=#b85450;" parent="1" vertex="1">
          <mxGeometry x="2232.5" y="1344" width="30" height="60" as="geometry" />
        </mxCell>
        <mxCell id="fH2ZrLtAb3C_Z9vUvOBv-17" value="&lt;div&gt;Realizar cadastro no sistema&lt;/div&gt;" style="ellipse;whiteSpace=wrap;html=1;fillColor=#f8cecc;strokeColor=#b85450;" parent="1" vertex="1">
          <mxGeometry x="2202.5" y="1254" width="90" height="70" as="geometry" />
        </mxCell>
        <mxCell id="fH2ZrLtAb3C_Z9vUvOBv-18" style="edgeStyle=orthogonalEdgeStyle;rounded=0;orthogonalLoop=1;jettySize=auto;html=1;exitX=0.5;exitY=0;exitDx=0;exitDy=0;endArrow=none;startFill=0;fillColor=#dae8fc;strokeColor=#6c8ebf;" parent="1" source="fH2ZrLtAb3C_Z9vUvOBv-19" edge="1">
          <mxGeometry relative="1" as="geometry">
            <mxPoint x="1973.5" y="1224" as="targetPoint" />
          </mxGeometry>
        </mxCell>
        <mxCell id="fH2ZrLtAb3C_Z9vUvOBv-19" value="Cunsultar exemplares e&amp;nbsp; disponibilidade" style="ellipse;whiteSpace=wrap;html=1;fillColor=#dae8fc;strokeColor=#6c8ebf;" parent="1" vertex="1">
          <mxGeometry x="1923.5" y="1264" width="100" height="70" as="geometry" />
        </mxCell>
        <mxCell id="fH2ZrLtAb3C_Z9vUvOBv-20" value="Solicitar aumento de prazo do empréstimo" style="ellipse;whiteSpace=wrap;html=1;fillColor=#f8cecc;strokeColor=#b85450;" parent="1" vertex="1">
          <mxGeometry x="2312.5" y="1434" width="90" height="70" as="geometry" />
        </mxCell>
        <mxCell id="fH2ZrLtAb3C_Z9vUvOBv-21" style="edgeStyle=orthogonalEdgeStyle;rounded=0;orthogonalLoop=1;jettySize=auto;html=1;entryX=0.5;entryY=0;entryDx=0;entryDy=0;endArrow=baseDash;endFill=0;fillColor=#f8cecc;strokeColor=#b85450;" parent="1" target="fH2ZrLtAb3C_Z9vUvOBv-22" edge="1">
          <mxGeometry relative="1" as="geometry">
            <mxPoint x="2247.5" y="1429" as="sourcePoint" />
          </mxGeometry>
        </mxCell>
        <mxCell id="fH2ZrLtAb3C_Z9vUvOBv-22" value="Consultar empréstimos" style="ellipse;whiteSpace=wrap;html=1;fillColor=#f8cecc;strokeColor=#b85450;" parent="1" vertex="1">
          <mxGeometry x="2202.5" y="1439" width="90" height="65" as="geometry" />
        </mxCell>
        <mxCell id="fH2ZrLtAb3C_Z9vUvOBv-23" value="Funcionário" style="shape=umlActor;verticalLabelPosition=bottom;verticalAlign=top;html=1;outlineConnect=0;fillColor=#d5e8d4;strokeColor=#82b366;" parent="1" vertex="1">
          <mxGeometry x="1958.5" y="1139" width="30" height="60" as="geometry" />
        </mxCell>
        <mxCell id="fH2ZrLtAb3C_Z9vUvOBv-24" style="edgeStyle=orthogonalEdgeStyle;rounded=0;orthogonalLoop=1;jettySize=auto;html=1;entryX=1;entryY=0.5;entryDx=0;entryDy=0;endArrow=baseDash;endFill=0;fillColor=#d5e8d4;strokeColor=#82b366;" parent="1" source="fH2ZrLtAb3C_Z9vUvOBv-23" target="fH2ZrLtAb3C_Z9vUvOBv-25" edge="1">
          <mxGeometry relative="1" as="geometry" />
        </mxCell>
        <mxCell id="fH2ZrLtAb3C_Z9vUvOBv-25" value="Manter cadastro de exemplares&amp;nbsp;" style="ellipse;whiteSpace=wrap;html=1;strokeColor=#82b366;align=center;verticalAlign=middle;fontFamily=Helvetica;fontSize=12;fillColor=#d5e8d4;" parent="1" vertex="1">
          <mxGeometry x="1818.5" y="1135.25" width="90" height="67.5" as="geometry" />
        </mxCell>
        <mxCell id="fH2ZrLtAb3C_Z9vUvOBv-26" style="edgeStyle=orthogonalEdgeStyle;rounded=0;orthogonalLoop=1;jettySize=auto;html=1;endArrow=none;startFill=0;fillColor=#dae8fc;strokeColor=#6c8ebf;" parent="1" edge="1">
          <mxGeometry relative="1" as="geometry">
            <mxPoint x="1973.5" y="1334" as="sourcePoint" />
            <mxPoint x="2231" y="1396" as="targetPoint" />
            <Array as="points">
              <mxPoint x="1974" y="1396" />
              <mxPoint x="2231" y="1396" />
            </Array>
          </mxGeometry>
        </mxCell>
        <mxCell id="fH2ZrLtAb3C_Z9vUvOBv-27" style="edgeStyle=orthogonalEdgeStyle;rounded=0;orthogonalLoop=1;jettySize=auto;html=1;exitX=1;exitY=0.5;exitDx=0;exitDy=0;endArrow=none;startFill=0;fillColor=#d5e8d4;strokeColor=#82b366;" parent="1" source="fH2ZrLtAb3C_Z9vUvOBv-28" edge="1">
          <mxGeometry relative="1" as="geometry">
            <mxPoint x="1958.5" y="1144" as="targetPoint" />
            <Array as="points">
              <mxPoint x="1928.5" y="1078" />
              <mxPoint x="1928.5" y="1144" />
            </Array>
          </mxGeometry>
        </mxCell>
        <mxCell id="fH2ZrLtAb3C_Z9vUvOBv-28" value="Gerenciar prazos de devolução" style="ellipse;whiteSpace=wrap;html=1;strokeColor=#82b366;align=center;verticalAlign=middle;fontFamily=Helvetica;fontSize=12;fillColor=#d5e8d4;" parent="1" vertex="1">
          <mxGeometry x="1818.5" y="1044" width="90" height="67.5" as="geometry" />
        </mxCell>
        <mxCell id="fH2ZrLtAb3C_Z9vUvOBv-29" style="edgeStyle=orthogonalEdgeStyle;rounded=0;orthogonalLoop=1;jettySize=auto;html=1;exitX=1;exitY=0.5;exitDx=0;exitDy=0;endArrow=none;startFill=0;fillColor=#d5e8d4;strokeColor=#82b366;" parent="1" source="fH2ZrLtAb3C_Z9vUvOBv-30" target="fH2ZrLtAb3C_Z9vUvOBv-23" edge="1">
          <mxGeometry relative="1" as="geometry">
            <mxPoint x="1948.5" y="1194" as="targetPoint" />
            <Array as="points">
              <mxPoint x="1928.5" y="1263" />
              <mxPoint x="1928.5" y="1194" />
            </Array>
          </mxGeometry>
        </mxCell>
        <mxCell id="fH2ZrLtAb3C_Z9vUvOBv-30" value="Gerenciar empréstimos de exemplares" style="ellipse;whiteSpace=wrap;html=1;strokeColor=#82b366;align=center;verticalAlign=middle;fontFamily=Helvetica;fontSize=12;fillColor=#d5e8d4;" parent="1" vertex="1">
          <mxGeometry x="1818.5" y="1229" width="90" height="67.5" as="geometry" />
        </mxCell>
        <mxCell id="fH2ZrLtAb3C_Z9vUvOBv-31" style="edgeStyle=orthogonalEdgeStyle;rounded=0;orthogonalLoop=1;jettySize=auto;html=1;exitX=1;exitY=0.5;exitDx=0;exitDy=0;endArrow=none;endFill=0;fillColor=#dae8fc;strokeColor=#6c8ebf;" parent="1" source="fH2ZrLtAb3C_Z9vUvOBv-34" edge="1">
          <mxGeometry relative="1" as="geometry">
            <mxPoint x="2238.5" y="1076" as="targetPoint" />
          </mxGeometry>
        </mxCell>
        <mxCell id="fH2ZrLtAb3C_Z9vUvOBv-32" style="edgeStyle=orthogonalEdgeStyle;rounded=0;orthogonalLoop=1;jettySize=auto;html=1;exitX=0;exitY=0.5;exitDx=0;exitDy=0;endArrow=none;endFill=0;fillColor=#dae8fc;strokeColor=#6c8ebf;" parent="1" source="fH2ZrLtAb3C_Z9vUvOBv-34" edge="1">
          <mxGeometry relative="1" as="geometry">
            <mxPoint x="1981" y="1134" as="targetPoint" />
            <Array as="points">
              <mxPoint x="1980.5" y="1076" />
            </Array>
          </mxGeometry>
        </mxCell>
        <mxCell id="fH2ZrLtAb3C_Z9vUvOBv-33" style="edgeStyle=orthogonalEdgeStyle;rounded=0;orthogonalLoop=1;jettySize=auto;html=1;endArrow=none;endFill=0;fillColor=#dae8fc;strokeColor=#6c8ebf;" parent="1" source="fH2ZrLtAb3C_Z9vUvOBv-34" edge="1">
          <mxGeometry relative="1" as="geometry">
            <mxPoint x="2231" y="1376" as="targetPoint" />
            <mxPoint x="2090.5" y="1084" as="sourcePoint" />
            <Array as="points">
              <mxPoint x="2069" y="1376" />
            </Array>
          </mxGeometry>
        </mxCell>
        <mxCell id="fH2ZrLtAb3C_Z9vUvOBv-34" value="Sair do sistema" style="ellipse;whiteSpace=wrap;html=1;fillColor=#dae8fc;strokeColor=#6c8ebf;" parent="1" vertex="1">
          <mxGeometry x="2023.5" y="1041.5" width="90" height="70" as="geometry" />
        </mxCell>
        <mxCell id="fH2ZrLtAb3C_Z9vUvOBv-35" value="&lt;font style=&quot;font-size: 14px;&quot;&gt;&lt;b&gt;Diagramas de Casos de Uso por Módulo&lt;/b&gt;&lt;/font&gt;" style="text;html=1;align=center;verticalAlign=middle;whiteSpace=wrap;rounded=0;" parent="1" vertex="1">
          <mxGeometry x="1950.5" y="883" width="290.5" height="30" as="geometry" />
        </mxCell>
        <mxCell id="fH2ZrLtAb3C_Z9vUvOBv-38" value="" style="rounded=0;whiteSpace=wrap;html=1;fillColor=#f8cecc;strokeColor=#b85450;" parent="1" vertex="1">
          <mxGeometry x="1751" y="913" width="30" height="12" as="geometry" />
        </mxCell>
        <mxCell id="fH2ZrLtAb3C_Z9vUvOBv-39" value="" style="rounded=0;whiteSpace=wrap;html=1;fillColor=#d5e8d4;strokeColor=#82b366;" parent="1" vertex="1">
          <mxGeometry x="1751" y="937" width="30" height="12" as="geometry" />
        </mxCell>
        <mxCell id="fH2ZrLtAb3C_Z9vUvOBv-40" value="" style="rounded=0;whiteSpace=wrap;html=1;fillColor=#dae8fc;strokeColor=#6c8ebf;" parent="1" vertex="1">
          <mxGeometry x="1751" y="961" width="30" height="12" as="geometry" />
        </mxCell>
        <mxCell id="fH2ZrLtAb3C_Z9vUvOBv-41" value="&lt;font style=&quot;font-size: 14px;&quot;&gt;&lt;span&gt;Java&lt;/span&gt;&lt;/font&gt;" style="text;html=1;align=left;verticalAlign=middle;whiteSpace=wrap;rounded=0;fontStyle=0" parent="1" vertex="1">
          <mxGeometry x="1785" y="914" width="50" height="11" as="geometry" />
        </mxCell>
        <mxCell id="fH2ZrLtAb3C_Z9vUvOBv-42" value="&lt;font style=&quot;font-size: 14px;&quot;&gt;&lt;span&gt;Python&lt;/span&gt;&lt;/font&gt;" style="text;html=1;align=left;verticalAlign=middle;whiteSpace=wrap;rounded=0;fontStyle=0" parent="1" vertex="1">
          <mxGeometry x="1785" y="937.5" width="50" height="11" as="geometry" />
        </mxCell>
        <mxCell id="fH2ZrLtAb3C_Z9vUvOBv-45" value="&lt;span style=&quot;font-size: 14px;&quot;&gt;Ambas as linguagens&lt;/span&gt;" style="text;html=1;align=left;verticalAlign=middle;whiteSpace=wrap;rounded=0;fontStyle=0" parent="1" vertex="1">
          <mxGeometry x="1785" y="961" width="136" height="11" as="geometry" />
        </mxCell>
        <mxCell id="ha1w1WFY_oq6MlDH5Q_z-7" value="" style="rounded=0;whiteSpace=wrap;html=1;fillColor=#f8cecc;strokeColor=#b85450;" parent="1" vertex="1">
          <mxGeometry x="575" y="1964.5" width="30" height="12" as="geometry" />
        </mxCell>
        <mxCell id="ha1w1WFY_oq6MlDH5Q_z-8" value="" style="rounded=0;whiteSpace=wrap;html=1;fillColor=#d5e8d4;strokeColor=#82b366;" parent="1" vertex="1">
          <mxGeometry x="575" y="1988.5" width="30" height="12" as="geometry" />
        </mxCell>
        <mxCell id="ha1w1WFY_oq6MlDH5Q_z-10" value="&lt;font style=&quot;font-size: 14px;&quot;&gt;&lt;span&gt;Java&lt;/span&gt;&lt;/font&gt;" style="text;html=1;align=left;verticalAlign=middle;whiteSpace=wrap;rounded=0;fontStyle=0" parent="1" vertex="1">
          <mxGeometry x="609" y="1965.5" width="50" height="11" as="geometry" />
        </mxCell>
        <mxCell id="ha1w1WFY_oq6MlDH5Q_z-11" value="&lt;font style=&quot;font-size: 14px;&quot;&gt;&lt;span&gt;Python&lt;/span&gt;&lt;/font&gt;" style="text;html=1;align=left;verticalAlign=middle;whiteSpace=wrap;rounded=0;fontStyle=0" parent="1" vertex="1">
          <mxGeometry x="609" y="1989" width="50" height="11" as="geometry" />
        </mxCell>
        <mxCell id="ha1w1WFY_oq6MlDH5Q_z-19" value="&lt;&lt;static&gt;&gt;&#xa;View_Java" style="swimlane;fontStyle=2;align=center;verticalAlign=top;childLayout=stackLayout;horizontal=1;startSize=40;horizontalStack=0;resizeParent=1;resizeLast=0;collapsible=1;marginBottom=0;rounded=0;shadow=0;strokeWidth=1;fillColor=#f8cecc;strokeColor=#b85450;" parent="1" vertex="1">
          <mxGeometry x="10" y="761" width="560" height="239" as="geometry">
            <mxRectangle x="230" y="140" width="160" height="26" as="alternateBounds" />
          </mxGeometry>
        </mxCell>
        <mxCell id="ha1w1WFY_oq6MlDH5Q_z-20" value="" style="line;html=1;strokeWidth=1;align=left;verticalAlign=middle;spacingTop=-1;spacingLeft=3;spacingRight=3;rotatable=0;labelPosition=right;points=[];portConstraint=eastwest;" parent="ha1w1WFY_oq6MlDH5Q_z-19" vertex="1">
          <mxGeometry y="40" width="560" height="10" as="geometry" />
        </mxCell>
        <mxCell id="ha1w1WFY_oq6MlDH5Q_z-25" value="+ Usuario_Autenticar(email: str, senha: str): void" style="text;align=left;verticalAlign=top;spacingLeft=4;spacingRight=4;overflow=hidden;rotatable=0;points=[[0,0.5],[1,0.5]];portConstraint=eastwest;" parent="ha1w1WFY_oq6MlDH5Q_z-19" vertex="1">
          <mxGeometry y="50" width="560" height="26" as="geometry" />
        </mxCell>
        <mxCell id="ha1w1WFY_oq6MlDH5Q_z-30" value="+ Cliente_Inserir(nome: str, email: str, fone: str, senha: str, tipo_usuario: int): void" style="text;align=left;verticalAlign=top;spacingLeft=4;spacingRight=4;overflow=hidden;rotatable=0;points=[[0,0.5],[1,0.5]];portConstraint=eastwest;" parent="ha1w1WFY_oq6MlDH5Q_z-19" vertex="1">
          <mxGeometry y="76" width="560" height="26" as="geometry" />
        </mxCell>
        <mxCell id="ha1w1WFY_oq6MlDH5Q_z-29" value="+ Cliente_Atualizar(id: int, nome: str, email: str, fone: str, senha: str): void" style="text;align=left;verticalAlign=top;spacingLeft=4;spacingRight=4;overflow=hidden;rotatable=0;points=[[0,0.5],[1,0.5]];portConstraint=eastwest;" parent="ha1w1WFY_oq6MlDH5Q_z-19" vertex="1">
          <mxGeometry y="102" width="560" height="26" as="geometry" />
        </mxCell>
        <mxCell id="ha1w1WFY_oq6MlDH5Q_z-28" value="+ Cliente_Excluir(id: int): void" style="text;align=left;verticalAlign=top;spacingLeft=4;spacingRight=4;overflow=hidden;rotatable=0;points=[[0,0.5],[1,0.5]];portConstraint=eastwest;" parent="ha1w1WFY_oq6MlDH5Q_z-19" vertex="1">
          <mxGeometry y="128" width="560" height="26" as="geometry" />
        </mxCell>
        <mxCell id="ha1w1WFY_oq6MlDH5Q_z-46" value="+ Emprestimo_Listar_Id(): List&lt;Emprestimos&gt;" style="text;align=left;verticalAlign=top;spacingLeft=4;spacingRight=4;overflow=hidden;rotatable=0;points=[[0,0.5],[1,0.5]];portConstraint=eastwest;" parent="ha1w1WFY_oq6MlDH5Q_z-19" vertex="1">
          <mxGeometry y="154" width="560" height="26" as="geometry" />
        </mxCell>
        <mxCell id="ha1w1WFY_oq6MlDH5Q_z-47" value="+ Emprestimo_Renovar(id: int, data: str, prazo_extentido: int, id_exemplar: int, id_usuario: int): void" style="text;align=left;verticalAlign=top;spacingLeft=4;spacingRight=4;overflow=hidden;rotatable=0;points=[[0,0.5],[1,0.5]];portConstraint=eastwest;" parent="ha1w1WFY_oq6MlDH5Q_z-19" vertex="1">
          <mxGeometry y="180" width="560" height="26" as="geometry" />
        </mxCell>
        <mxCell id="ha1w1WFY_oq6MlDH5Q_z-49" value="+ Exemplar_Listar(): List&lt;Exemplares&gt;" style="text;align=left;verticalAlign=top;spacingLeft=4;spacingRight=4;overflow=hidden;rotatable=0;points=[[0,0.5],[1,0.5]];portConstraint=eastwest;" parent="ha1w1WFY_oq6MlDH5Q_z-19" vertex="1">
          <mxGeometry y="206" width="560" height="26" as="geometry" />
        </mxCell>
        <mxCell id="ha1w1WFY_oq6MlDH5Q_z-54" value="&lt;font style=&quot;font-size: 14px;&quot;&gt;&lt;b&gt;Diagramas de Classes de Operações - Java&lt;/b&gt;&lt;/font&gt;" style="text;html=1;align=center;verticalAlign=middle;whiteSpace=wrap;rounded=0;" parent="1" vertex="1">
          <mxGeometry x="135" y="720" width="310" height="30" as="geometry" />
        </mxCell>
        <mxCell id="ha1w1WFY_oq6MlDH5Q_z-55" value="&lt;&lt;enum&gt;&gt;&#xa;Usuários" style="swimlane;fontStyle=2;align=center;verticalAlign=top;childLayout=stackLayout;horizontal=1;startSize=43;horizontalStack=0;resizeParent=1;resizeLast=0;collapsible=1;marginBottom=0;rounded=0;shadow=0;strokeWidth=1;" parent="1" vertex="1">
          <mxGeometry x="2125" y="632" width="170" height="129" as="geometry">
            <mxRectangle x="230" y="140" width="160" height="26" as="alternateBounds" />
          </mxGeometry>
        </mxCell>
        <mxCell id="ha1w1WFY_oq6MlDH5Q_z-56" value="- admin: str" style="text;align=left;verticalAlign=top;spacingLeft=4;spacingRight=4;overflow=hidden;rotatable=0;points=[[0,0.5],[1,0.5]];portConstraint=eastwest;" parent="ha1w1WFY_oq6MlDH5Q_z-55" vertex="1">
          <mxGeometry y="43" width="170" height="26" as="geometry" />
        </mxCell>
        <mxCell id="ha1w1WFY_oq6MlDH5Q_z-57" value="- funcionario: str" style="text;align=left;verticalAlign=top;spacingLeft=4;spacingRight=4;overflow=hidden;rotatable=0;points=[[0,0.5],[1,0.5]];portConstraint=eastwest;rounded=0;shadow=0;html=0;" parent="ha1w1WFY_oq6MlDH5Q_z-55" vertex="1">
          <mxGeometry y="69" width="170" height="26" as="geometry" />
        </mxCell>
        <mxCell id="ha1w1WFY_oq6MlDH5Q_z-58" value="- cliente: str" style="text;align=left;verticalAlign=top;spacingLeft=4;spacingRight=4;overflow=hidden;rotatable=0;points=[[0,0.5],[1,0.5]];portConstraint=eastwest;rounded=0;shadow=0;html=0;" parent="ha1w1WFY_oq6MlDH5Q_z-55" vertex="1">
          <mxGeometry y="95" width="170" height="24" as="geometry" />
        </mxCell>
        <mxCell id="ha1w1WFY_oq6MlDH5Q_z-62" value="" style="line;html=1;strokeWidth=1;align=left;verticalAlign=middle;spacingTop=-1;spacingLeft=3;spacingRight=3;rotatable=0;labelPosition=right;points=[];portConstraint=eastwest;" parent="ha1w1WFY_oq6MlDH5Q_z-55" vertex="1">
          <mxGeometry y="119" width="170" height="10" as="geometry" />
        </mxCell>
        <mxCell id="ha1w1WFY_oq6MlDH5Q_z-100" value="Tamplates&lt;div&gt;&lt;br&gt;&lt;/div&gt;&lt;div&gt;&lt;br&gt;&lt;div&gt;&lt;br&gt;&lt;/div&gt;&lt;div&gt;&lt;br&gt;&lt;/div&gt;&lt;div&gt;&lt;br&gt;&lt;/div&gt;&lt;div&gt;&lt;div&gt;&lt;br&gt;&lt;/div&gt;&lt;div&gt;&lt;br&gt;&lt;/div&gt;&lt;div&gt;&lt;br&gt;&lt;/div&gt;&lt;div&gt;&lt;br&gt;&lt;div&gt;&lt;br&gt;&lt;/div&gt;&lt;div&gt;&lt;br&gt;&lt;/div&gt;&lt;div&gt;&lt;br&gt;&lt;/div&gt;&lt;div&gt;&lt;br&gt;&lt;/div&gt;&lt;div&gt;&lt;br&gt;&lt;/div&gt;&lt;/div&gt;&lt;/div&gt;&lt;/div&gt;" style="shape=folder;fontStyle=1;spacingTop=10;tabWidth=40;tabHeight=14;tabPosition=left;html=1;whiteSpace=wrap;" parent="1" vertex="1">
          <mxGeometry x="70" y="1950" width="410" height="250" as="geometry" />
        </mxCell>
        <mxCell id="ha1w1WFY_oq6MlDH5Q_z-127" style="edgeStyle=orthogonalEdgeStyle;rounded=0;orthogonalLoop=1;jettySize=auto;html=1;exitX=1;exitY=0.5;exitDx=0;exitDy=0;entryX=0;entryY=0.5;entryDx=0;entryDy=0;endArrow=open;endFill=0;dashed=1;" parent="1" source="ha1w1WFY_oq6MlDH5Q_z-116" target="ha1w1WFY_oq6MlDH5Q_z-117" edge="1">
          <mxGeometry relative="1" as="geometry" />
        </mxCell>
        <mxCell id="ha1w1WFY_oq6MlDH5Q_z-116" value="&lt;p style=&quot;margin:0px;margin-top:4px;text-align:center;&quot;&gt;&lt;i&gt;&amp;lt;&amp;lt;static&amp;gt;&amp;gt;&lt;/i&gt;&lt;br&gt;&lt;b&gt;UsuarioLivroUI&lt;/b&gt;&lt;/p&gt;&lt;hr size=&quot;1&quot; style=&quot;border-style:solid;&quot;&gt;&lt;p style=&quot;margin:0px;margin-left:4px;&quot;&gt;&lt;br&gt;&lt;/p&gt;&lt;hr size=&quot;1&quot; style=&quot;border-style:solid;&quot;&gt;&lt;p style=&quot;margin: 0px 0px 0px 4px;&quot;&gt;&lt;span style=&quot;text-wrap-mode: nowrap; background-color: initial;&quot;&gt;+ Main(): void&lt;/span&gt;&lt;/p&gt;&lt;p style=&quot;margin: 0px 0px 0px 4px;&quot;&gt;&lt;span style=&quot;text-wrap-mode: nowrap; background-color: initial;&quot;&gt;+ Cliente_Inserir(): void&lt;/span&gt;&lt;/p&gt;&lt;p style=&quot;margin: 0px 0px 0px 4px;&quot;&gt;&lt;span style=&quot;text-wrap-mode: nowrap;&quot;&gt;+ Cliente_Atualizar(): void&lt;/span&gt;&lt;/p&gt;&lt;p style=&quot;margin: 0px 0px 0px 4px;&quot;&gt;&lt;span style=&quot;text-wrap-mode: nowrap;&quot;&gt;+ Cliente_Excluir(): void&amp;nbsp;&lt;/span&gt;&lt;/p&gt;&lt;p style=&quot;margin: 0px 0px 0px 4px;&quot;&gt;&lt;span style=&quot;text-wrap-mode: nowrap; background-color: initial;&quot;&gt;+ Exemplares_Listar(): list&lt;/span&gt;&lt;/p&gt;&lt;p style=&quot;margin: 0px 0px 0px 4px;&quot;&gt;&lt;span style=&quot;text-wrap-mode: nowrap; background-color: initial;&quot;&gt;+ Emprestimo_Listar(): list&lt;/span&gt;&lt;/p&gt;&lt;p style=&quot;margin: 0px 0px 0px 4px;&quot;&gt;&lt;span style=&quot;text-wrap-mode: nowrap;&quot;&gt;+ Emprestimo_Renovar(): void&lt;/span&gt;&lt;span style=&quot;text-wrap-mode: nowrap; background-color: initial;&quot;&gt;&lt;/span&gt;&lt;/p&gt;&lt;p style=&quot;margin: 0px 0px 0px 4px;&quot;&gt;+ Sair_do_Sistema(): void&amp;nbsp;&lt;/p&gt;" style="verticalAlign=top;align=left;overflow=fill;html=1;whiteSpace=wrap;fillColor=#f8cecc;strokeColor=#b85450;" parent="1" vertex="1">
          <mxGeometry x="79" y="2000" width="171" height="190" as="geometry" />
        </mxCell>
        <mxCell id="ha1w1WFY_oq6MlDH5Q_z-117" value="&lt;p style=&quot;margin:0px;margin-top:4px;text-align:center;&quot;&gt;&lt;i&gt;&amp;lt;&amp;lt;static&amp;gt;&amp;gt;&lt;/i&gt;&lt;br&gt;&lt;b&gt;View_Java&lt;/b&gt;&lt;/p&gt;&lt;hr size=&quot;1&quot; style=&quot;border-style:solid;&quot;&gt;&lt;p style=&quot;margin:0px;margin-left:4px;&quot;&gt;&lt;br&gt;&lt;/p&gt;&lt;hr size=&quot;1&quot; style=&quot;border-style:solid;&quot;&gt;&lt;p style=&quot;margin:0px;margin-left:4px;&quot;&gt;&lt;span style=&quot;text-wrap-mode: nowrap; background-color: initial;&quot;&gt;+ Main&lt;/span&gt;&lt;span style=&quot;text-wrap-mode: nowrap; background-color: initial;&quot;&gt;(): void&lt;/span&gt;&lt;/p&gt;&lt;p style=&quot;margin:0px;margin-left:4px;&quot;&gt;&lt;br&gt;&lt;/p&gt;" style="verticalAlign=top;align=left;overflow=fill;html=1;whiteSpace=wrap;fillColor=#f8cecc;strokeColor=#b85450;" parent="1" vertex="1">
          <mxGeometry x="322" y="2046.5" width="150" height="97" as="geometry" />
        </mxCell>
        <mxCell id="ha1w1WFY_oq6MlDH5Q_z-121" style="edgeStyle=orthogonalEdgeStyle;rounded=0;orthogonalLoop=1;jettySize=auto;html=1;exitX=0.25;exitY=1;exitDx=0;exitDy=0;entryX=0.267;entryY=-0.003;entryDx=0;entryDy=0;entryPerimeter=0;endArrow=open;endFill=0;dashed=1;" parent="1" source="3AB0t5_sJRTs1TqdBcbe-224" target="3AB0t5_sJRTs1TqdBcbe-233" edge="1">
          <mxGeometry relative="1" as="geometry" />
        </mxCell>
        <mxCell id="ha1w1WFY_oq6MlDH5Q_z-128" style="edgeStyle=orthogonalEdgeStyle;rounded=0;orthogonalLoop=1;jettySize=auto;html=1;exitX=0;exitY=0;exitDx=410;exitDy=142;exitPerimeter=0;endArrow=open;endFill=0;dashed=1;" parent="1" source="ha1w1WFY_oq6MlDH5Q_z-100" edge="1">
          <mxGeometry relative="1" as="geometry">
            <mxPoint x="861" y="1860" as="targetPoint" />
          </mxGeometry>
        </mxCell>
        <mxCell id="MbNx7MYost8CwfClbqcF-1" value="View&lt;br&gt;&lt;div&gt;&lt;br&gt;&lt;/div&gt;&lt;div&gt;&lt;br&gt;&lt;div&gt;&lt;br&gt;&lt;/div&gt;&lt;div&gt;&lt;br&gt;&lt;/div&gt;&lt;div&gt;&lt;br&gt;&lt;/div&gt;&lt;div&gt;&lt;br&gt;&lt;/div&gt;&lt;div&gt;&lt;br&gt;&lt;/div&gt;&lt;/div&gt;" style="shape=folder;fontStyle=1;spacingTop=10;tabWidth=40;tabHeight=14;tabPosition=left;html=1;whiteSpace=wrap;" vertex="1" parent="1">
          <mxGeometry x="773" y="1700" width="160" height="160" as="geometry" />
        </mxCell>
        <mxCell id="MbNx7MYost8CwfClbqcF-2" value="&amp;lt;&amp;lt;static&amp;gt;&amp;gt;&lt;br&gt;&lt;b&gt;View Java&lt;/b&gt;" style="html=1;whiteSpace=wrap;" vertex="1" parent="1">
          <mxGeometry x="798" y="1770" width="110" height="50" as="geometry" />
        </mxCell>
        <mxCell id="MbNx7MYost8CwfClbqcF-3" style="edgeStyle=orthogonalEdgeStyle;rounded=0;orthogonalLoop=1;jettySize=auto;html=1;exitX=0;exitY=0;exitDx=160;exitDy=87;exitPerimeter=0;entryX=0.001;entryY=0.914;entryDx=0;entryDy=0;entryPerimeter=0;dashed=1;endArrow=open;endFill=0;" edge="1" parent="1" source="MbNx7MYost8CwfClbqcF-1" target="3AB0t5_sJRTs1TqdBcbe-178">
          <mxGeometry relative="1" as="geometry" />
        </mxCell>
      </root>
    </mxGraphModel>
  </diagram>
</mxfile>
